<svg width="256" height="151" viewBox="0 0 256 151" fill="none" xmlns="http://www.w3.org/2000/svg">
<path d="M226.107 0.49707C231.334 0.49707 236.658 0.301654 241.836 0.594727C245.303 0.790102 247.99 1.18108 250.774 3.52539C253.656 5.9677 255.122 9.19198 255.415 12.9043L255.601 140.412C255.247 143.18 253.953 145.739 251.8 147.524C249.798 149.185 247.355 150.016 244.815 150.162C240.517 150.162 240.516 150.26 229.038 150.26H38.4401C34.5812 150.26 30.6241 150.651 26.7653 150.26C24.1278 150.455 23.346 150.26 21.1969 150.26H15.4332C11.8675 150.26 8.4968 149.82 5.56604 147.622C2.63549 145.424 1.16976 142.103 0.730103 138.537C0.046259 132.871 0.63244 126.618 0.632446 120.903V36.8877C0.632446 28.7305 0.0951281 20.1337 0.827759 12.0254C1.07198 9.68083 1.95131 7.4821 3.41663 5.62598C5.7124 2.79289 8.9856 0.985478 12.6002 0.643555C16.1659 0.301643 19.9759 0.497066 23.5905 0.49707H226.107ZM132.954 41.8223C131.049 41.7246 128.948 41.6757 127.043 41.9199L126.994 42.0176C118.104 42.9946 110.045 46.6098 104.427 53.6924C98.1262 61.6055 95.6838 72.5471 96.8561 82.5117C97.7842 90.5225 101.106 97.8009 107.553 102.832C115.564 109.133 126.652 110.354 136.47 109.133C141.501 108.498 146.142 107.13 150.831 105.176L152.931 113.285C140.671 119.049 124.552 120.025 111.755 115.434C102.865 112.259 95.3908 105.811 91.3365 97.2627C89.5782 93.5017 88.4549 89.4477 88.0641 85.2959L80.3463 78.457C59.196 100.145 36.5308 120.318 15.4293 142.055C61.5402 142.543 107.651 142.006 153.762 142.104H214.185C222.928 142.104 231.721 141.859 240.464 142.055C219.168 120.513 197.04 99.8517 175.596 78.5059C172.079 81.6808 168.562 84.9051 165.046 88.1289C158.793 93.8928 153.713 99.5588 144.383 98.9727C141.697 98.8261 139.401 97.7517 137.593 95.7002C136.275 94.1861 135.738 92.4761 135.103 90.6201C131.586 94.7231 128.069 98.2399 122.354 98.7285C118.349 99.0704 114.098 97.9473 111.021 95.3584C107.309 92.2322 105.599 87.4451 105.257 82.707C104.769 74.9405 107.309 67.3205 112.34 61.4102C116.883 56.1348 123.331 52.9103 130.267 52.4219C134.663 52.1289 138.668 53.3504 142.966 53.9365C145.067 54.2296 147.217 54.2295 149.317 54.2295C148.145 60.8726 147.07 67.5649 146.045 74.2568C145.556 77.5295 144.725 80.9979 144.481 84.2705C144.383 85.4916 144.237 87.445 144.872 88.5684C145.214 89.2034 145.995 89.6435 146.728 89.7412C148.78 89.9854 151.222 88.4711 152.687 87.2012C157.083 83.3912 158.793 77.2364 159.135 71.668C159.624 64.1457 157.718 56.4279 152.589 50.6641C147.656 45.1445 140.281 42.2131 132.954 41.8223ZM181.946 72.8887L214.869 105.078L247.156 136.389L247.009 39.8691C247.009 35.3754 247.693 16.5701 246.912 13.834L181.946 72.8887ZM9.12854 94.1367C9.12854 108.156 8.88432 122.175 9.12854 136.193L42.3434 103.955C52.943 93.6485 63.8356 83.4883 74.2399 72.9375L30.6207 33.4697C23.5048 26.9874 16.5833 20.0191 9.12854 13.9229V94.1367ZM130.609 61.752H130.658C126.115 62.5335 122.94 64.732 120.302 68.4932C117.567 72.4008 116.004 77.969 116.883 82.707C117.323 85.0516 118.593 87.2007 120.595 88.5195C121.523 89.1057 122.598 89.3505 123.672 89.5947C127.189 89.0086 129.583 87.6405 131.683 84.6611C135.737 78.7996 135.737 69.86 137.105 63.0215C135.005 62.3377 132.807 61.6055 130.609 61.752ZM112.145 8.85156C80.1509 8.85156 48.1072 8.6073 16.1129 8.94922L16.0641 8.90039C18.0668 11.4404 21.0466 13.7365 23.4401 15.8857L37.068 28.0967L87.4283 73.6211C88.7472 61.361 93.7298 50.4686 103.45 42.6045C112.731 35.131 124.65 32.3951 136.373 33.6162C145.849 34.5931 154.787 38.9407 160.796 46.4141C167.194 54.3272 168.806 63.9016 168.318 73.7686L185.464 58.3818L240.268 8.85156H112.145ZM9.12854 13.9229V13.8828H9.07971C9.09601 13.8961 9.11225 13.9095 9.12854 13.9229Z" fill="#0081FF"/>
</svg>
