<svg width="69" height="83" viewBox="0 0 69 83" fill="none" xmlns="http://www.w3.org/2000/svg">
<path d="M63.7921 74.7792H7.21952C8.0141 67.4663 12.1446 63.0896 16.0912 59.7655C19.0003 57.3209 24.3193 53.7752 30.5052 51.1506C31.6872 50.6451 32.9349 50.1257 34.2023 49.5925C41.4783 46.5315 49.7261 43.0551 53.8238 40.5898C62.0519 35.6313 65.5585 30.1605 65.5585 22.3073C65.5585 15.9431 62.4787 10.7146 56.1353 6.33101C50.1004 2.16207 42.0955 0.0429688 32.3505 0.0429688H30.6628C22.6908 0.0429688 15.7432 2.14822 10.017 6.28946C4.13972 10.5346 0.830074 15.9916 0.186533 22.5151L0.0289307 24.0802L1.48675 24.3918C4.45492 25.0636 6.73358 23.6785 7.561 20.7284C8.76928 16.7603 11.6455 13.457 16.1043 10.9293C20.4187 8.54013 25.3175 7.32823 30.6563 7.32823H32.3439C39.6987 7.32823 45.878 8.69941 50.7177 11.3933C56.2732 14.5373 58.6372 17.7991 58.6372 22.3004C58.6372 27.2658 56.0236 30.8253 49.319 35.0011C46.1407 36.9817 41.3338 39.0247 34.6882 41.8501C32.6066 42.7365 30.3411 43.6991 27.8917 44.7587C19.217 48.5329 15.0471 51.8154 11.698 54.447L10.9757 55.0148C5.99811 58.9137 0.0617644 65.8112 0.0617644 76.5659C0.0617644 80.0077 2.02522 82.0645 5.31517 82.0645H68.8222V80.3263C68.8222 76.8014 66.9901 74.7792 63.7921 74.7792Z" fill="#0081FF"/>
</svg>
