<svg width="93" height="94" viewBox="0 0 93 94" fill="none" xmlns="http://www.w3.org/2000/svg">
<path d="M86.8163 16.2451C89.8597 16.3993 92.28 18.9154 92.2802 21.9971V71.917L92.2723 72.2139C92.123 75.1591 89.7615 77.5207 86.8163 77.6699L86.5204 77.6777H5.87976L5.58386 77.6699C2.54032 77.5158 0.119995 74.9988 0.119995 71.917V21.9971C0.120124 18.8161 2.69879 16.2374 5.87976 16.2373H86.5204L86.8163 16.2451ZM5.87976 20.0771C4.81956 20.0773 3.95997 20.9369 3.95984 21.9971V71.917C3.95984 72.9773 4.81948 73.8368 5.87976 73.8369H86.5204C87.5806 73.8367 88.4403 72.9773 88.4403 71.917V21.9971C88.4402 20.9369 87.5805 20.0774 86.5204 20.0771H5.87976ZM9.7196 50.7969C10.7798 50.7969 11.6392 51.6567 11.6395 52.7168V66.1572H25.08C26.1401 66.1574 26.9997 67.017 26.9999 68.0771C26.9999 69.1374 26.1402 69.9969 25.08 69.9971H9.7196C8.6594 69.9969 7.79968 69.1374 7.79968 68.0771V52.7168C7.80003 51.6568 8.65961 50.7971 9.7196 50.7969ZM82.6796 23.918C83.74 23.918 84.5995 24.7775 84.5995 25.8379V41.1982C84.5991 42.2583 83.7397 43.1182 82.6796 43.1182C81.6196 43.1179 80.7601 42.2581 80.7596 41.1982V27.7578H67.3192C66.2593 27.7574 65.3995 26.8978 65.3993 25.8379C65.3993 24.7778 66.2592 23.9184 67.3192 23.918H82.6796Z" fill="white"/>
</svg>
