<svg width="93" height="93" viewBox="0 0 93 93" fill="none" xmlns="http://www.w3.org/2000/svg">
<path d="M73.3772 8.48145C79.602 8.63905 84.5996 13.7343 84.5999 19.9971V73.7578L84.5959 74.0547C84.4408 80.1809 79.5034 85.1183 73.3772 85.2734L73.0803 85.2773H19.3196C13.0568 85.2771 7.96157 80.2795 7.80396 74.0547L7.80005 73.7578V19.9971C7.8003 13.6351 12.9576 8.47779 19.3196 8.47754H73.0803L73.3772 8.48145ZM19.3196 12.3174C15.0784 12.3176 11.6401 15.7559 11.6399 19.9971V73.7578C11.64 77.9991 15.0783 81.4373 19.3196 81.4375H73.0803C77.3217 81.4373 80.7599 77.9991 80.76 73.7578V19.9971C80.7598 15.7558 77.3216 12.3175 73.0803 12.3174H19.3196ZM19.3196 69.917C21.4404 69.917 23.1604 71.637 23.1604 73.7578C23.1602 75.8784 21.4402 77.5977 19.3196 77.5977C17.1991 77.5974 15.48 75.8782 15.4797 73.7578C15.4797 71.6372 17.199 69.9172 19.3196 69.917ZM73.0803 69.917C75.2009 69.9172 76.9202 71.6371 76.9202 73.7578C76.9199 75.8783 75.2008 77.5975 73.0803 77.5977C70.9597 77.5977 69.2407 75.8784 69.2405 73.7578C69.2405 71.637 70.9595 69.917 73.0803 69.917ZM53.0667 39.4023C53.9536 39.4024 54.8334 39.515 55.7063 39.7402C56.5793 39.9655 57.3399 40.2895 57.9875 40.7119L57.1213 42.8447C56.4596 42.4505 55.7765 42.1615 55.0725 41.9785C54.3687 41.7815 53.6927 41.6836 53.0452 41.6836C52.2849 41.6836 51.6654 41.775 51.1868 41.958C50.7222 42.141 50.3769 42.3801 50.1516 42.6758C49.9405 42.9714 49.8352 43.3094 49.8352 43.6895C49.8352 44.14 49.9903 44.5065 50.3 44.7881C50.6238 45.0555 51.0394 45.2661 51.5461 45.4209C52.067 45.5758 52.6441 45.7309 53.2776 45.8857C53.9112 46.0265 54.538 46.189 55.1575 46.3721C55.791 46.5551 56.3616 46.7942 56.8684 47.0898C57.3893 47.3855 57.8048 47.7871 58.1145 48.2939C58.4382 48.8008 58.5999 49.4416 58.5999 50.2158C58.5998 51.0042 58.3819 51.7364 57.9456 52.4121C57.5232 53.0739 56.8678 53.6093 55.9807 54.0176C55.0938 54.4117 53.9746 54.6084 52.6233 54.6084C51.4687 54.6084 50.3629 54.4469 49.3069 54.123C48.2512 53.7852 47.4136 53.3557 46.7942 52.835L47.7444 50.7012C48.3357 51.1658 49.0677 51.5535 49.9407 51.8633C50.8136 52.173 51.7081 52.3271 52.6233 52.3271C53.3973 52.3271 54.0236 52.2431 54.5022 52.0742C54.9809 51.9053 55.3336 51.68 55.5588 51.3984C55.7841 51.1028 55.8967 50.7714 55.8967 50.4053C55.8966 49.9549 55.7341 49.5956 55.4104 49.3281C55.0867 49.0467 54.6644 48.8286 54.1438 48.6738C53.6369 48.5049 53.0665 48.3498 52.4329 48.209C51.8134 48.0682 51.1865 47.9067 50.553 47.7236C49.9335 47.5265 49.363 47.28 48.842 46.9844C48.3353 46.6747 47.9197 46.2665 47.5959 45.7598C47.2721 45.2529 47.1106 44.6048 47.1106 43.8164C47.1106 43.0139 47.3221 42.2818 47.7444 41.6201C48.1808 40.9443 48.8354 40.4089 49.7083 40.0146C50.5953 39.6063 51.715 39.4023 53.0667 39.4023ZM24.4045 51.0088L29.3743 39.6133H32.1204L25.678 54.3975H22.9749L16.512 39.6133H19.4905L24.4045 51.0088ZM44.5784 41.915H36.5315V45.7598H43.6702V48.0195H36.5315V52.0957H44.8733V54.3975H33.7854V39.6133H44.5784V41.915ZM75.3674 54.3975H72.4954L71.0256 50.9756H63.6311L62.1672 54.3975H59.3372L65.9895 39.6133H68.6936L75.3674 54.3975ZM64.553 48.8213H70.1008L67.3215 42.3506L64.553 48.8213ZM19.3196 16.1572C21.4403 16.1572 23.1602 17.8764 23.1604 19.9971C23.1604 22.1178 21.4404 23.8369 19.3196 23.8369C17.199 23.8367 15.4797 22.1177 15.4797 19.9971C15.4799 17.8766 17.1991 16.1575 19.3196 16.1572ZM73.0803 16.1572C75.2008 16.1574 76.92 17.8765 76.9202 19.9971C76.9202 22.1177 75.2009 23.8367 73.0803 23.8369C70.9595 23.8369 69.2405 22.1178 69.2405 19.9971C69.2406 17.8764 70.9596 16.1572 73.0803 16.1572Z" fill="white"/>
</svg>
