<svg width="93" height="93" viewBox="0 0 93 93" fill="none" xmlns="http://www.w3.org/2000/svg">
<path d="M46.2004 8.39746C54.6832 8.39767 61.5605 15.2741 61.5608 23.7568C61.5608 26.5545 60.812 29.1783 59.5051 31.4375H76.179C78.8609 31.4378 81.1882 33.2891 81.7913 35.9023L90.6526 74.3018C91.4854 77.9109 88.7442 81.3571 85.0403 81.3574H7.36157C3.6574 81.3574 0.91635 77.9111 1.74927 74.3018L10.6106 35.9023C11.2137 33.2889 13.5408 31.4375 16.2229 31.4375H32.8958C31.5888 29.1782 30.8401 26.5546 30.8401 23.7568C30.8403 15.274 37.7175 8.39748 46.2004 8.39746ZM46.2004 12.2373C39.8383 12.2373 34.6812 17.3947 34.6809 23.7568C34.6809 25.8615 35.2411 27.8241 36.219 29.5146C36.906 30.7025 36.9073 32.1667 36.2219 33.3555C35.5363 34.5441 34.2679 35.2771 32.8958 35.2773H16.2229C15.3289 35.2774 14.5529 35.8945 14.3518 36.7656L5.49048 75.166C5.21319 76.3689 6.127 77.5176 7.36157 77.5176H85.0403C86.2746 77.5173 87.1885 76.3688 86.9114 75.166L78.0491 36.7656C77.8481 35.8947 77.0727 35.2776 76.179 35.2773H59.5051C58.1329 35.2772 56.8646 34.5441 56.179 33.3555C55.4935 32.1667 55.4947 30.7025 56.1819 29.5146C57.1597 27.8242 57.7209 25.8614 57.7209 23.7568C57.7207 17.3949 52.5624 12.2375 46.2004 12.2373ZM46.2004 42.957C47.2605 42.9573 48.1202 43.8168 48.1204 44.877V63.2812L56.3625 55.0391C57.1122 54.2897 58.3277 54.2898 59.0774 55.0391C59.8271 55.7888 59.8271 57.0051 59.0774 57.7549L47.5579 69.2744C46.8081 70.0241 45.5918 70.0241 44.842 69.2744L33.3225 57.7549C32.5729 57.0051 32.5729 55.7888 33.3225 55.0391C34.0722 54.2897 35.2876 54.2898 36.0374 55.0391L44.2805 63.2822V44.877C44.2807 43.8167 45.1402 42.9571 46.2004 42.957ZM46.2004 16.0771C50.4417 16.0774 53.88 19.5155 53.8801 23.7568C53.8801 27.9983 50.4418 31.4373 46.2004 31.4375C41.9589 31.4375 38.5208 27.9984 38.5208 23.7568C38.5209 19.5154 41.959 16.0772 46.2004 16.0771ZM46.2004 19.917C44.0798 19.917 42.3607 21.6362 42.3606 23.7568C42.3606 25.8776 44.0797 27.5966 46.2004 27.5967C48.321 27.5965 50.0403 25.8775 50.0403 23.7568C50.0401 21.6363 48.3209 19.9172 46.2004 19.917Z" fill="white"/>
</svg>
