<svg width="96" height="97" viewBox="0 0 96 97" fill="none" xmlns="http://www.w3.org/2000/svg">
<path d="M48.0103 92.5576C49.1148 92.5575 50.0101 93.453 50.0103 94.5576C50.0103 95.6619 49.1155 96.5573 48.0112 96.5576H48.0103C46.906 96.5574 46.0104 95.6619 46.0103 94.5576C46.0103 93.4532 46.9059 92.5579 48.0103 92.5576ZM39.6528 92.1084C40.7509 92.2271 41.5448 93.2135 41.4263 94.3115C41.3075 95.4096 40.3212 96.2036 39.2231 96.085C38.1251 95.9661 37.331 94.9799 37.4497 93.8818C37.5611 92.8523 38.4351 92.09 39.4487 92.0967L39.6528 92.1084ZM56.3677 92.1064C57.4657 91.9876 58.4528 92.7818 58.5718 93.8799C58.6905 94.9778 57.8963 95.964 56.7983 96.083C55.7003 96.2019 54.7133 95.4086 54.5942 94.3105C54.4752 93.2125 55.2697 92.2256 56.3677 92.1064ZM29.0142 92.2725C29.2536 91.1943 30.3218 90.5138 31.3999 90.7529C32.4782 90.9924 33.1589 92.0613 32.9194 93.1396C32.6799 94.2178 31.611 94.8977 30.5327 94.6582C29.4548 94.4185 28.7749 93.3505 29.0142 92.2725ZM64.6196 90.75C65.6978 90.5103 66.7665 91.1895 67.0063 92.2676C67.2461 93.3458 66.566 94.4145 65.4878 94.6543C64.4096 94.8938 63.3408 94.2139 63.1011 93.1357C62.8616 92.0577 63.5417 90.9898 64.6196 90.75ZM20.8198 89.7051C21.1835 88.6623 22.3239 88.1121 23.3667 88.4756C24.4096 88.8393 24.9598 89.9795 24.5962 91.0225C24.2551 91.9999 23.2323 92.5447 22.2466 92.3096L22.0493 92.252L21.8599 92.1748C20.9416 91.746 20.479 90.6827 20.8198 89.7051ZM72.6528 88.4697C73.6956 88.1061 74.8358 88.6565 75.1997 89.6992C75.5408 90.6769 75.0781 91.74 74.1597 92.1689L73.9702 92.2461C72.9274 92.6098 71.7872 92.0594 71.4233 91.0166C71.0597 89.974 71.6095 88.8339 72.6519 88.4697H72.6528ZM48.0181 85.5576C49.1224 85.5574 50.0175 86.4523 50.0181 87.5566C50.0183 88.5923 49.2318 89.4443 48.2231 89.5469L48.019 89.5576L47.814 89.5469C46.8059 89.4444 46.0186 88.5937 46.0181 87.5586C46.0178 86.4541 46.9136 85.5581 48.0181 85.5576ZM13.561 86.4404C14.0442 85.4475 15.2407 85.0338 16.2339 85.5166C17.2272 85.9997 17.6408 87.1971 17.1577 88.1904C16.6745 89.1833 15.478 89.5971 14.4849 89.1143C13.4917 88.6311 13.0781 87.4337 13.561 86.4404ZM79.7837 85.5098C80.7768 85.0265 81.9741 85.4396 82.4575 86.4326C82.9408 87.4258 82.5269 88.6231 81.5337 89.1064L81.3452 89.1865C80.3937 89.5354 79.313 89.1145 78.8599 88.1836C78.3767 87.1905 78.7907 85.9931 79.7837 85.5098ZM39.8013 85.0264C40.8965 85.1693 41.6687 86.1733 41.5259 87.2686C41.3919 88.2955 40.5012 89.0389 39.4878 89.0098L39.2837 88.9932L39.0825 88.9561C38.096 88.7239 37.4252 87.7777 37.5591 86.751C37.702 85.656 38.7062 84.8838 39.8013 85.0264ZM56.2329 85.0225C57.3281 84.879 58.3326 85.6509 58.4761 86.7461C58.6194 87.8412 57.8476 88.8448 56.7524 88.9883C55.6575 89.1315 54.6538 88.3606 54.5103 87.2656C54.3668 86.1706 55.138 85.1662 56.2329 85.0225ZM29.2827 84.8291C29.5715 83.763 30.6708 83.1322 31.7368 83.4209C32.8029 83.7098 33.4328 84.8089 33.144 85.875C32.8551 86.9408 31.7568 87.5708 30.6909 87.2822C29.6251 86.9933 28.9943 85.895 29.2827 84.8291ZM64.2964 83.4131C65.3624 83.1237 66.4611 83.7534 66.7505 84.8193C67.0398 85.8853 66.4102 86.9841 65.3442 87.2734C64.2784 87.5625 63.1795 86.933 62.8901 85.8672C62.6009 84.8014 63.2307 83.7026 64.2964 83.4131ZM6.77002 82.291C7.37705 81.3685 8.61685 81.113 9.53955 81.7197C10.4623 82.3267 10.7186 83.5664 10.1118 84.4893C9.54272 85.3543 8.41691 85.6337 7.51807 85.165L7.34131 85.0615L7.17627 84.9404C6.39013 84.3007 6.20111 83.1561 6.77002 82.291ZM86.4761 81.7109C87.3987 81.1037 88.6393 81.3597 89.2466 82.2822C89.8536 83.2049 89.5978 84.4446 88.6753 85.0518C87.7527 85.6588 86.512 85.4039 85.9048 84.4814C85.2977 83.5589 85.5538 82.3183 86.4761 81.7109ZM21.3618 81.7549C21.8018 80.7419 22.9806 80.278 23.9937 80.7178C25.0066 81.1578 25.4716 82.3356 25.0317 83.3486C24.6193 84.2983 23.5581 84.7656 22.5923 84.458L22.3999 84.3867L22.2163 84.2959C21.3323 83.8002 20.9495 82.7046 21.3618 81.7549ZM72.0376 80.7051C73.0505 80.2647 74.2289 80.7294 74.6694 81.7422C75.1096 82.755 74.6451 83.9326 73.6323 84.373C72.6195 84.8133 71.4409 84.3497 71.0005 83.3369C70.5603 82.3241 71.0249 81.1456 72.0376 80.7051ZM48.0005 78.5576C49.1051 78.5576 50.0005 79.4531 50.0005 80.5576C50.0005 81.6622 49.1051 82.5576 48.0005 82.5576C46.8962 82.5573 46.0005 81.662 46.0005 80.5576C46.0005 79.4533 46.8962 78.558 48.0005 78.5576ZM40.7798 78.0791C41.8745 78.2256 42.6429 79.2314 42.4966 80.3262C42.3593 81.3525 41.4668 82.0927 40.4536 82.0605L40.2495 82.0439L40.0483 82.0059C39.0624 81.7706 38.3945 80.8222 38.5317 79.7959C38.6782 78.7012 39.6851 77.9329 40.7798 78.0791ZM55.2222 78.0791C56.3168 77.9328 57.3226 78.7013 57.4692 79.7959C57.6156 80.8907 56.8472 81.8975 55.7524 82.0439C54.6577 82.1901 53.6507 81.4209 53.5044 80.3262C53.3582 79.2316 54.1276 78.2256 55.2222 78.0791ZM14.02 77.4824C14.6176 76.5538 15.8548 76.2856 16.7837 76.8828C17.7126 77.4803 17.9816 78.7175 17.3843 79.6465C16.7868 80.5753 15.5495 80.8442 14.6206 80.2471H14.6196L14.4536 80.1279C13.6609 79.4963 13.46 78.3533 14.02 77.4824ZM31.2378 78.0215C31.5345 76.9578 32.6378 76.3355 33.7017 76.6318C34.7654 76.9285 35.3877 78.0318 35.0913 79.0957C34.8132 80.0933 33.8258 80.7026 32.8267 80.5303L32.6274 80.4854L32.4331 80.4209C31.4892 80.0515 30.9598 79.019 31.2378 78.0215ZM62.3003 76.6328C63.3643 76.3363 64.4676 76.9585 64.7642 78.0225C65.0605 79.0864 64.4384 80.1888 63.3745 80.4854L63.1743 80.5303C62.1755 80.702 61.1886 80.093 60.9106 79.0957C60.6145 78.032 61.2368 76.9296 62.3003 76.6328ZM0.629395 77.2295C1.31779 76.4559 2.47196 76.3426 3.29346 76.9365L3.45264 77.0645C4.27772 77.7987 4.35169 79.0625 3.61768 79.8877C2.88346 80.7126 1.61957 80.7867 0.794434 80.0527H0.793457L0.647949 79.9092C-0.0371928 79.1624 -0.0586238 78.0031 0.629395 77.2295ZM79.2437 76.8662C80.1722 76.2682 81.4101 76.5365 82.0083 77.4648C82.6064 78.3935 82.3383 79.6314 81.4097 80.2295C80.481 80.8274 79.2431 80.5594 78.645 79.6309C78.0473 78.7023 78.3153 77.4642 79.2437 76.8662ZM92.561 77.0547C93.3859 76.3202 94.6507 76.393 95.3853 77.2178C96.1198 78.0427 96.0461 79.3075 95.2212 80.042C94.3962 80.7764 93.1315 80.7028 92.397 79.8779C91.663 79.0531 91.7365 77.7891 92.561 77.0547ZM80.0005 24.5576C83.3139 24.5579 86.0004 27.2442 86.0005 30.5576V66.5576C86.0005 69.8712 83.314 72.5574 80.0005 72.5576H16.0005L15.6919 72.5498C12.5216 72.3892 10.0005 69.7678 10.0005 66.5576V30.5576C10.0006 27.3475 12.5217 24.726 15.6919 24.5654L16.0005 24.5576H80.0005ZM16.0005 28.5576C14.896 28.5576 14.0006 29.4532 14.0005 30.5576V66.5576C14.0005 67.6622 14.8959 68.5576 16.0005 68.5576H80.0005C81.1048 68.5574 82.0005 67.662 82.0005 66.5576V30.5576C82.0004 29.4533 81.1048 28.5579 80.0005 28.5576H16.0005ZM14.5923 16.8857C15.5209 16.2877 16.7588 16.5559 17.3569 17.4844C17.9548 18.413 17.6868 19.651 16.7583 20.249C15.8298 20.8468 14.5917 20.5788 13.9937 19.6504C13.3957 18.7218 13.6639 17.4839 14.5923 16.8857ZM0.780762 17.0732C1.60566 16.3388 2.87043 16.4125 3.60498 17.2373C4.33912 18.0622 4.2656 19.3261 3.44092 20.0605C2.61597 20.7949 1.35118 20.7223 0.616699 19.8975C-0.117611 19.0726 -0.0439514 17.8077 0.780762 17.0732ZM60.9106 18.0195C61.1887 17.022 62.1763 16.4128 63.1753 16.585L63.3745 16.6299L63.5688 16.6943C64.5129 17.0637 65.0422 18.0962 64.7642 19.0938C64.4674 20.1575 63.3642 20.7799 62.3003 20.4834C61.2367 20.1866 60.6143 19.0833 60.9106 18.0195ZM32.8276 16.585C33.8265 16.4131 34.8133 17.0222 35.0913 18.0195C35.3875 19.0833 34.7653 20.1858 33.7017 20.4824C32.6377 20.7787 31.5343 20.1567 31.2378 19.0928C30.9415 18.029 31.5638 16.9265 32.6274 16.6299L32.8276 16.585ZM92.3843 17.2275C93.1184 16.4025 94.3823 16.3287 95.2075 17.0625H95.2085L95.354 17.2061C96.0393 17.9529 96.0607 19.1121 95.3726 19.8857C94.6841 20.6593 93.5299 20.7727 92.7085 20.1787L92.5493 20.0508C91.7245 19.3166 91.6505 18.0527 92.3843 17.2275ZM78.6177 17.4688C79.215 16.54 80.4524 16.2712 81.3813 16.8682H81.3823L81.5483 16.9873C82.3413 17.619 82.5421 18.7618 81.9819 19.6328C81.3843 20.5614 80.1471 20.8298 79.2183 20.2324C78.2896 19.6349 78.0205 18.3976 78.6177 17.4688ZM40.2495 15.0713C41.3443 14.9249 42.3512 15.6943 42.4976 16.7891C42.6438 17.8838 41.8745 18.8898 40.7798 19.0361C39.6852 19.1823 38.6793 18.4138 38.5327 17.3193C38.3864 16.2247 39.1549 15.2179 40.2495 15.0713ZM55.7524 15.0713L55.9536 15.1094C56.9397 15.3445 57.6075 16.2929 57.4702 17.3193C57.3237 18.4141 56.3169 19.1825 55.2222 19.0361C54.1276 18.8895 53.359 17.8837 53.5054 16.7891C53.6426 15.7628 54.5353 15.0227 55.5483 15.0547L55.7524 15.0713ZM48.0015 14.5576C49.1059 14.5578 50.0015 15.4532 50.0015 16.5576C50.0015 17.6621 49.1059 18.5574 48.0015 18.5576C46.8971 18.5574 46.0015 17.6621 46.0015 16.5576C46.0015 15.4532 46.897 14.5578 48.0015 14.5576ZM22.3696 12.7422C23.3825 12.3018 24.5609 12.7655 25.0015 13.7783C25.4418 14.7912 24.9772 15.9697 23.9644 16.4102C22.9515 16.8504 21.773 16.3858 21.3325 15.373C20.8925 14.3604 21.3571 13.1827 22.3696 12.7422ZM70.9702 13.7666C71.3826 12.8169 72.4439 12.3498 73.4097 12.6572L73.6021 12.7285L73.7856 12.8193C74.6698 13.315 75.0526 14.4105 74.6401 15.3604C74.2001 16.3733 73.0214 16.8374 72.0083 16.3975C70.9956 15.9573 70.5305 14.7795 70.9702 13.7666ZM7.32666 12.0635C8.24923 11.4563 9.48985 11.7114 10.0972 12.6338C10.7044 13.5564 10.4484 14.797 9.52588 15.4043C8.60323 16.0113 7.36256 15.7556 6.75537 14.833C6.14853 13.9105 6.40435 12.6707 7.32666 12.0635ZM85.8901 12.626C86.4591 11.7609 87.585 11.4817 88.4839 11.9502L88.6606 12.0537L88.8257 12.1748C89.612 12.8146 89.801 13.959 89.2319 14.8242C88.6248 15.7466 87.3851 16.0024 86.4624 15.3955C85.5399 14.7885 85.2835 13.5487 85.8901 12.626ZM30.6577 9.8418C31.7236 9.5526 32.8224 10.1822 33.1118 11.248C33.4011 12.314 32.7714 13.4127 31.7056 13.7021C30.6397 13.9913 29.5408 13.3618 29.2515 12.2959C28.9622 11.2301 29.592 10.1313 30.6577 9.8418ZM62.8579 11.2402C63.1468 10.1745 64.2452 9.54463 65.311 9.83301C66.377 10.1218 67.0077 11.2201 66.7192 12.2861C66.4304 13.3522 65.3312 13.9832 64.2651 13.6943C63.1993 13.4053 62.5692 12.3062 62.8579 11.2402ZM39.2495 8.12695C40.3446 7.98361 41.3481 8.7546 41.4917 9.84961C41.6351 10.9447 40.8641 11.9492 39.769 12.0928C38.674 12.236 37.6693 11.4642 37.5259 10.3691C37.3826 9.27411 38.1545 8.27055 39.2495 8.12695ZM56.7183 8.12207L56.9194 8.15918C57.9062 8.39125 58.5768 9.33747 58.4429 10.3643C58.2999 11.4593 57.2958 12.2316 56.2007 12.0889C55.1056 11.9458 54.3333 10.9418 54.4761 9.84668C54.61 8.81982 55.5008 8.07653 56.5142 8.10547L56.7183 8.12207ZM14.6567 7.92871C15.6083 7.57966 16.6889 8.00075 17.1421 8.93164C17.6254 9.92486 17.2115 11.1222 16.2183 11.6055C15.2251 12.0886 14.0277 11.6757 13.5444 10.6826C13.0613 9.68952 13.4753 8.49217 14.4683 8.00879L14.6567 7.92871ZM78.8442 8.9248C79.3273 7.9319 80.524 7.51836 81.5171 8.00098C82.5104 8.48403 82.924 9.68146 82.4409 10.6748C81.9577 11.6677 80.7612 12.0815 79.7681 11.5986C78.775 11.1155 78.3613 9.91803 78.8442 8.9248ZM48.188 7.56836C49.1962 7.67071 49.9834 8.52147 49.9839 9.55664C49.9842 10.6612 49.0885 11.5573 47.9839 11.5576C46.8797 11.5577 45.9844 10.6628 45.9839 9.55859C45.9836 8.52308 46.7704 7.67107 47.7788 7.56836L47.9829 7.55762L48.188 7.56836ZM22.0317 4.86914C23.0746 4.50525 24.2147 5.0558 24.5786 6.09863C24.9424 7.14136 24.3927 8.28145 23.3501 8.64551H23.3491C22.3064 9.00896 21.1661 8.4587 20.8022 7.41602C20.4613 6.43843 20.924 5.37527 21.8423 4.94629L22.0317 4.86914ZM71.4058 6.09277C71.7467 5.11542 72.7697 4.57077 73.7554 4.80566L73.9526 4.86328L74.1421 4.94043C75.0605 5.36922 75.523 6.43241 75.1821 7.41016C74.8183 8.45292 73.6781 9.00326 72.6353 8.63965C71.5926 8.27582 71.0422 7.13557 71.4058 6.09277ZM30.5142 2.46094C31.5924 2.22123 32.6611 2.90129 32.9009 3.97949C33.1404 5.05762 32.4605 6.12555 31.3823 6.36523C30.3043 6.60472 29.2354 5.92562 28.9956 4.84766C28.756 3.76958 29.4362 2.70083 30.5142 2.46094ZM63.0825 3.97559C63.322 2.89746 64.3911 2.21779 65.4692 2.45703C66.5474 2.69657 67.2271 3.76461 66.9878 4.84277C66.7483 5.92094 65.6802 6.60158 64.6021 6.3623C63.524 6.12271 62.8431 5.05375 63.0825 3.97559ZM39.2036 1.03223C40.3017 0.91321 41.2887 1.70658 41.4077 2.80469C41.5267 3.90283 40.7324 4.88977 39.6343 5.00879C38.5364 5.12746 37.5492 4.3333 37.4302 3.23535C37.3115 2.13752 38.1058 1.1514 39.2036 1.03223ZM56.7788 1.03027C57.877 1.14905 58.671 2.13523 58.5522 3.2334C58.4408 4.26299 57.567 5.02533 56.5532 5.01855L56.3491 5.00684C55.2513 4.88792 54.4572 3.90157 54.5757 2.80371C54.6944 1.70575 55.6809 0.911866 56.7788 1.03027ZM47.9917 0.557617C49.0961 0.557737 49.9916 1.4532 49.9917 2.55762C49.9917 3.66208 49.0962 4.55749 47.9917 4.55762C46.8873 4.55756 45.9918 3.66207 45.9917 2.55762C45.9917 1.4534 46.8866 0.558152 47.9907 0.557617H47.9917Z" fill="#0F59D4"/>
</svg>
