<svg width="96" height="97" viewBox="0 0 96 97" fill="none" xmlns="http://www.w3.org/2000/svg">
<path d="M3 73.5576H93M74.2501 34.2651L68.6251 39.8517M21.7499 34.2651L27.3749 39.8517M61.2584 73.5037C62.9995 71.7745 64.3806 69.7216 65.3229 67.4623C66.2651 65.203 66.7501 62.7815 66.7501 60.336C66.7501 57.8905 66.2651 55.469 65.3229 53.2097C64.3806 50.9504 62.9995 48.8975 61.2584 47.1683C59.5173 45.4391 57.4503 44.0675 55.1754 43.1316C52.9006 42.1958 50.4624 41.7141 48.0001 41.7141C45.5378 41.7141 43.0997 42.1958 40.8248 43.1316C38.5499 44.0675 36.483 45.4391 34.7419 47.1683C33.0008 48.8975 31.6197 50.9504 30.6774 53.2097C29.7351 55.469 29.2501 57.8905 29.2501 60.336C29.2501 62.7815 29.7351 65.203 30.6774 67.4623C31.6196 69.7216 33.0008 71.7745 34.7419 73.5037M10.4999 60.3359H21.7499M85.5001 60.3359H74.2501M47.9996 23.5576V34.2652" stroke="#0F59D4" stroke-width="4.25" stroke-linecap="round"/>
</svg>
