<svg width="96" height="97" viewBox="0 0 96 97" fill="none" xmlns="http://www.w3.org/2000/svg">
<path d="M27.3044 11.999C28.9277 11.079 30.67 11.4978 31.782 12.5098C32.8603 13.4913 33.4389 15.0902 32.9832 16.7246C29.4154 29.5124 32.6613 43.7943 42.7117 53.8447C52.7626 63.8957 67.0454 67.141 79.8337 63.5723C81.4683 63.1163 83.0669 63.696 84.0486 64.7744C85.0607 65.8863 85.4803 67.6286 84.5603 69.252C82.7323 72.4774 80.4443 75.5105 77.699 78.2559C61.297 94.6579 34.7035 94.6579 18.3015 78.2559C1.89983 61.8539 1.89981 35.2613 18.3015 18.8594C21.0464 16.1145 24.0796 13.8269 27.3044 11.999ZM29.1345 15.5605C26.2733 17.1989 23.5777 19.2405 21.1306 21.6875C6.29069 36.5274 6.29069 60.5878 21.1306 75.4277C35.9705 90.2673 60.03 90.2673 74.8699 75.4277C77.3176 72.98 79.3592 70.283 80.9978 67.4209C80.9747 67.4169 80.9455 67.4153 80.908 67.4258C66.7857 71.3664 50.9962 67.7855 39.8835 56.6729C28.7715 45.5607 25.1898 29.7721 29.1296 15.6504C29.1403 15.6122 29.1387 15.5838 29.1345 15.5605ZM52.283 8.73633C52.4561 7.64582 53.4813 6.90245 54.572 7.0752C63.3321 8.46279 71.4284 12.5878 77.7 18.8594C83.9715 25.131 88.0966 33.2272 89.4841 41.9873C89.6568 43.078 88.9126 44.1023 87.822 44.2754C86.7312 44.4481 85.7059 43.704 85.533 42.6133C84.2776 34.6874 80.5452 27.3618 74.8708 21.6875C69.1965 16.0132 61.871 12.2807 53.9451 11.0254C52.8545 10.8523 52.1102 9.82707 52.283 8.73633Z" fill="#0F59D4"/>
</svg>
