<svg width="96" height="97" viewBox="0 0 96 97" fill="none" xmlns="http://www.w3.org/2000/svg">
<path d="M68.5146 0.570312C73.7983 0.838161 78 5.20737 78 10.5576V86.5576C78 92.0805 73.5228 96.5576 68 96.5576H28C22.4772 96.5576 18 92.0805 18 86.5576V10.5576C18 5.03477 22.4772 0.557617 28 0.557617H68L68.5146 0.570312ZM28 4.55762C24.6863 4.55762 22 7.24391 22 10.5576V86.5576C22 89.8713 24.6863 92.5576 28 92.5576H68C71.3137 92.5576 74 89.8713 74 86.5576V10.5576C74 7.24391 71.3137 4.55762 68 4.55762H28ZM32 72.5576C35.3137 72.5576 38 75.2439 38 78.5576C38 81.8713 35.3137 84.5576 32 84.5576C28.6863 84.5576 26 81.8713 26 78.5576C26 75.2439 28.6863 72.5576 32 72.5576ZM64 72.5576C67.3137 72.5576 70 75.2439 70 78.5576C70 81.8713 67.3137 84.5576 64 84.5576C60.6863 84.5576 58 81.8713 58 78.5576C58 75.2439 60.6863 72.5576 64 72.5576ZM32 76.5576C30.8954 76.5576 30 77.453 30 78.5576C30 79.6622 30.8954 80.5576 32 80.5576C33.1046 80.5576 34 79.6622 34 78.5576C34 77.453 33.1046 76.5576 32 76.5576ZM64 76.5576C62.8954 76.5576 62 77.453 62 78.5576C62 79.6622 62.8954 80.5576 64 80.5576C65.1046 80.5576 66 79.6622 66 78.5576C66 77.453 65.1046 76.5576 64 76.5576ZM32 56.5576C35.3137 56.5576 38 59.2439 38 62.5576C38 65.8713 35.3137 68.5576 32 68.5576C28.6863 68.5576 26 65.8713 26 62.5576C26 59.2439 28.6863 56.5576 32 56.5576ZM48 56.5576C51.3137 56.5576 54 59.2439 54 62.5576C54 65.8713 51.3137 68.5576 48 68.5576C44.6863 68.5576 42 65.8713 42 62.5576C42 59.2439 44.6863 56.5576 48 56.5576ZM64 56.5576C67.3137 56.5576 70 59.2439 70 62.5576C70 65.8713 67.3137 68.5576 64 68.5576C60.6863 68.5576 58 65.8713 58 62.5576C58 59.2439 60.6863 56.5576 64 56.5576ZM32 60.5576C30.8954 60.5576 30 61.453 30 62.5576C30 63.6622 30.8954 64.5576 32 64.5576C33.1046 64.5576 34 63.6622 34 62.5576C34 61.453 33.1046 60.5576 32 60.5576ZM48 60.5576C46.8954 60.5576 46 61.453 46 62.5576C46 63.6622 46.8954 64.5576 48 64.5576C49.1046 64.5576 50 63.6622 50 62.5576C50 61.453 49.1046 60.5576 48 60.5576ZM64 60.5576C62.8954 60.5576 62 61.453 62 62.5576C62 63.6622 62.8954 64.5576 64 64.5576C65.1046 64.5576 66 63.6622 66 62.5576C66 61.453 65.1046 60.5576 64 60.5576ZM32 40.5576C35.3137 40.5576 38 43.2439 38 46.5576C38 49.8713 35.3137 52.5576 32 52.5576C28.6863 52.5576 26 49.8713 26 46.5576C26 43.2439 28.6863 40.5576 32 40.5576ZM48 40.5576C51.3137 40.5576 54 43.2439 54 46.5576C54 49.8713 51.3137 52.5576 48 52.5576C44.6863 52.5576 42 49.8713 42 46.5576C42 43.2439 44.6863 40.5576 48 40.5576ZM64 40.5576C67.3137 40.5576 70 43.2439 70 46.5576C70 49.8713 67.3137 52.5576 64 52.5576C60.6863 52.5576 58 49.8713 58 46.5576C58 43.2439 60.6863 40.5576 64 40.5576ZM32 44.5576C30.8954 44.5576 30 45.453 30 46.5576C30 47.6622 30.8954 48.5576 32 48.5576C33.1046 48.5576 34 47.6622 34 46.5576C34 45.453 33.1046 44.5576 32 44.5576ZM48 44.5576C46.8954 44.5576 46 45.453 46 46.5576C46 47.6622 46.8954 48.5576 48 48.5576C49.1046 48.5576 50 47.6622 50 46.5576C50 45.453 49.1046 44.5576 48 44.5576ZM64 44.5576C62.8954 44.5576 62 45.453 62 46.5576C62 47.6622 62.8954 48.5576 64 48.5576C65.1046 48.5576 66 47.6622 66 46.5576C66 45.453 65.1046 44.5576 64 44.5576ZM32 24.5576C35.3137 24.5576 38 27.2439 38 30.5576C38 33.8713 35.3137 36.5576 32 36.5576C28.6863 36.5576 26 33.8713 26 30.5576C26 27.2439 28.6863 24.5576 32 24.5576ZM48 24.5576C51.3137 24.5576 54 27.2439 54 30.5576C54 33.8713 51.3137 36.5576 48 36.5576C44.6863 36.5576 42 33.8713 42 30.5576C42 27.2439 44.6863 24.5576 48 24.5576ZM64 24.5576C67.3137 24.5576 70 27.2439 70 30.5576C70 33.8713 67.3137 36.5576 64 36.5576C60.6863 36.5576 58 33.8713 58 30.5576C58 27.2439 60.6863 24.5576 64 24.5576ZM48 28.5576C46.8954 28.5576 46 29.453 46 30.5576C46 31.6622 46.8954 32.5576 48 32.5576C49.1046 32.5576 50 31.6622 50 30.5576C50 29.453 49.1046 28.5576 48 28.5576ZM32 28.5576C30.8954 28.5576 30 29.453 30 30.5576C30 31.6622 30.8954 32.5576 32 32.5576C33.1046 32.5576 34 31.6622 34 30.5576C34 29.453 33.1046 28.5576 32 28.5576ZM64 28.5576C62.8954 28.5576 62 29.453 62 30.5576C62 31.6622 62.8954 32.5576 64 32.5576C65.1046 32.5576 66 31.6622 66 30.5576C66 29.453 65.1046 28.5576 64 28.5576ZM32 8.55762C35.3137 8.55762 38 11.2439 38 14.5576C38 17.8713 35.3137 20.5576 32 20.5576C28.6863 20.5576 26 17.8713 26 14.5576C26 11.2439 28.6863 8.55762 32 8.55762ZM48 8.55762C51.3137 8.55762 54 11.2439 54 14.5576C54 17.8713 51.3137 20.5576 48 20.5576C44.6863 20.5576 42 17.8713 42 14.5576C42 11.2439 44.6863 8.55762 48 8.55762ZM64 8.55762C67.3137 8.55762 70 11.2439 70 14.5576C70 17.8713 67.3137 20.5576 64 20.5576C60.6863 20.5576 58 17.8713 58 14.5576C58 11.2439 60.6863 8.55762 64 8.55762ZM32 12.5576C30.8954 12.5576 30 13.453 30 14.5576C30 15.6622 30.8954 16.5576 32 16.5576C33.1046 16.5576 34 15.6622 34 14.5576C34 13.453 33.1046 12.5576 32 12.5576ZM48 12.5576C46.8954 12.5576 46 13.453 46 14.5576C46 15.6622 46.8954 16.5576 48 16.5576C49.1046 16.5576 50 15.6622 50 14.5576C50 13.453 49.1046 12.5576 48 12.5576ZM64 12.5576C62.8954 12.5576 62 13.453 62 14.5576C62 15.6622 62.8954 16.5576 64 16.5576C65.1046 16.5576 66 15.6622 66 14.5576C66 13.453 65.1046 12.5576 64 12.5576Z" fill="#0F59D4"/>
</svg>
