<svg width="96" height="97" viewBox="0 0 96 97" fill="none" xmlns="http://www.w3.org/2000/svg">
<path d="M96 48.5594L85.3356 42.7856V46.9044H30.8268L41.4403 36.3919C42.3435 35.7131 43.5253 35.2369 44.741 35.2106C49.659 35.2106 52.5795 35.2094 53.6546 35.2074C54.3833 37.1537 56.3407 38.5586 58.6676 38.5586C61.6114 38.5586 64.0004 36.3191 64.0004 33.5583C64.0004 30.7963 61.6116 28.5576 58.6676 28.5576C56.3407 28.5576 54.3833 29.9617 53.6546 31.9065L44.8455 31.9051C42.458 31.9051 39.9562 33.1331 38.3639 34.5728C38.4074 34.53 38.4526 34.4844 38.3614 34.5736C38.3277 34.6091 27.1008 45.7259 27.1008 45.7259C26.1995 46.4036 25.0183 46.8768 23.8035 46.904H17.6372C16.8198 43.085 13.2226 40.2077 8.90758 40.2077C3.98789 40.2077 0 43.9463 0 48.5572C0 53.1695 3.98789 56.9084 8.90758 56.9084C13.2235 56.9084 16.8207 54.0287 17.6381 50.2065H23.6963C23.7118 50.2065 23.7274 50.2073 23.7432 50.2065H37.1429C38.3554 50.2354 39.5351 50.7092 40.4356 51.3878C40.4356 51.3878 51.6599 62.5037 51.6946 62.5397C51.7389 62.5816 51.7846 62.629 51.6946 62.5397C53.2869 63.9791 55.7906 65.2072 58.1785 65.2072L66.6679 65.2054V68.5576H77.3351V58.558H66.6679V61.9059C66.6679 61.9059 64.4319 61.9021 58.0745 61.9021C56.8586 61.8759 55.6755 61.4003 54.7726 60.7216L44.1568 50.2071H85.3356V54.3324L96 48.5594Z" fill="#0F59D4"/>
</svg>
