<svg width="96" height="97" viewBox="0 0 96 97" fill="none" xmlns="http://www.w3.org/2000/svg">
<path d="M45.0703 5.2947C46.9933 4.81062 49.0067 4.81062 50.9297 5.2947L74.9297 11.3367C80.2622 12.6793 84 17.4744 84 22.9734V53.5574C83.9996 65.8276 65.1546 81.7476 53.333 89.406L53.0244 89.5974C49.9125 91.4577 46.0875 91.4577 42.9756 89.5974L42.667 89.406C30.8454 81.7476 12.0004 65.8276 12 53.5574V22.9734C12 17.6463 15.5079 12.9795 20.5752 11.4724L21.0703 11.3367L45.0703 5.2947ZM49.9531 9.17361C48.6712 8.85089 47.3288 8.85089 46.0469 9.17361L22.0469 15.2156C18.4919 16.1106 16 19.3074 16 22.9734V53.5574C16.0001 55.6402 16.8185 58.2227 18.582 61.239C20.3243 64.2189 22.8284 67.3485 25.791 70.4461C31.7185 76.6435 39.1282 82.3471 44.8418 86.0486C46.7854 87.3076 49.2146 87.3076 51.1582 86.0486C56.8718 82.3471 64.2815 76.6435 70.209 70.4461C73.1716 67.3485 75.6757 64.2189 77.418 61.239C79.1815 58.2227 79.9999 55.6402 80 53.5574V22.9734C80 19.3074 77.5081 16.1106 73.9531 15.2156L49.9531 9.17361ZM48 26.5564C59.6263 26.5564 69.784 32.9663 75.5254 42.5271C75.9056 43.1606 75.9056 43.9522 75.5254 44.5857C69.784 54.1468 59.6265 60.5564 48 60.5564C36.3737 60.5561 26.2159 54.1469 20.4746 44.5857C20.0946 43.9523 20.0944 43.1605 20.4746 42.5271C26.2159 32.9661 36.3738 26.5567 48 26.5564ZM38.4961 32.2771C32.8159 34.4031 27.9485 38.3821 24.5537 43.5564C29.6467 51.3192 38.0523 56.3922 47.5488 56.5486C40.0258 56.3104 34.0003 50.1382 34 42.5574C34 38.494 35.7312 34.8346 38.4961 32.2771ZM57.4971 32.2713C60.2658 34.829 62 38.4908 62 42.5574C61.9997 50.1385 55.9737 56.3109 48.4502 56.5486C57.9472 56.3929 66.3519 51.3194 71.4453 43.5564C68.0488 38.38 63.1804 34.3965 57.4971 32.2713ZM48 32.5574C42.4772 32.5574 38 37.0345 38 42.5574C38.0003 48.08 42.4773 52.5574 48 52.5574C53.5227 52.5574 57.9997 48.08 58 42.5574C58 37.0345 53.5228 32.5574 48 32.5574ZM48 38.5574C50.2091 38.5574 52 40.3483 52 42.5574C51.9997 44.7663 50.209 46.5574 48 46.5574C45.791 46.5574 44.0003 44.7663 44 42.5574C44 40.3483 45.7909 38.5574 48 38.5574Z" fill="#0F59D4"/>
</svg>
