<svg width="96" height="97" viewBox="0 0 96 97" fill="none" xmlns="http://www.w3.org/2000/svg">
<path d="M90 16.5576C93.3137 16.5576 96 19.2439 96 22.5576V74.5576C96 77.8713 93.3137 80.5576 90 80.5576H6C2.68629 80.5576 0 77.8713 0 74.5576V22.5576C1.81203e-08 19.2439 2.68629 16.5576 6 16.5576H90ZM6 20.5576C4.89543 20.5576 4 21.453 4 22.5576V74.5576C4 75.6622 4.89543 76.5576 6 76.5576H90C91.1046 76.5576 92 75.6622 92 74.5576V22.5576C92 21.453 91.1046 20.5576 90 20.5576H6ZM10 63.6689C11.1046 63.6689 12 64.5644 12 65.6689V70.5576H16C17.1046 70.5576 18 71.453 18 72.5576C18 73.6622 17.1046 74.5576 16 74.5576H12C9.85997 74.5576 8.11211 72.8771 8.00488 70.7637L8 70.5576V65.6689C8 64.5644 8.89543 63.6689 10 63.6689ZM34 70.5576C35.1046 70.5576 36 71.453 36 72.5576C36 73.6622 35.1046 74.5576 34 74.5576H26C24.8954 74.5576 24 73.6622 24 72.5576C24 71.453 24.8954 70.5576 26 70.5576H34ZM52 70.5576C53.1046 70.5576 54 71.453 54 72.5576C54 73.6622 53.1046 74.5576 52 74.5576H44C42.8954 74.5576 42 73.6622 42 72.5576C42 71.453 42.8954 70.5576 44 70.5576H52ZM70 70.5576C71.1046 70.5576 72 71.453 72 72.5576C72 73.6622 71.1046 74.5576 70 74.5576H62C60.8954 74.5576 60 73.6622 60 72.5576C60 71.453 60.8954 70.5576 62 70.5576H70ZM86 63.6689C87.1046 63.6689 88 64.5644 88 65.6689V70.5576C88 72.7668 86.2091 74.5576 84 74.5576H80C78.8954 74.5576 78 73.6622 78 72.5576C78 71.453 78.8954 70.5576 80 70.5576H84V65.6689C84 64.5644 84.8954 63.6689 86 63.6689ZM18 60.5576C19.1046 60.5576 20 61.453 20 62.5576V64.5576H22.4443C23.5489 64.5576 24.4443 65.453 24.4443 66.5576C24.4443 67.6622 23.5489 68.5576 22.4443 68.5576H18C16.8954 68.5576 16 67.6622 16 66.5576V62.5576C16 61.453 16.8954 60.5576 18 60.5576ZM42.4443 64.5576C43.5489 64.5576 44.4443 65.453 44.4443 66.5576C44.4443 67.6622 43.5489 68.5576 42.4443 68.5576H33.5557C32.4511 68.5576 31.5557 67.6622 31.5557 66.5576C31.5557 65.453 32.4511 64.5576 33.5557 64.5576H42.4443ZM62.4443 64.5576C63.5489 64.5576 64.4443 65.453 64.4443 66.5576C64.4443 67.6622 63.5489 68.5576 62.4443 68.5576H53.5557C52.4511 68.5576 51.5557 67.6622 51.5557 66.5576C51.5557 65.453 52.4511 64.5576 53.5557 64.5576H62.4443ZM78 60.5576C79.1046 60.5576 80 61.453 80 62.5576V66.5576C80 67.6622 79.1046 68.5576 78 68.5576H73.5557C72.4511 68.5576 71.5557 67.6622 71.5557 66.5576C71.5557 65.453 72.4511 64.5576 73.5557 64.5576H76V62.5576C76 61.453 76.8954 60.5576 78 60.5576ZM10 41.6689C11.1046 41.6689 12 42.5644 12 43.6689V53.4463C12 54.5509 11.1046 55.4463 10 55.4463C8.89543 55.4463 8 54.5509 8 53.4463V43.6689C8 42.5644 8.89543 41.6689 10 41.6689ZM86 41.6689C87.1046 41.6689 88 42.5644 88 43.6689V53.4463C88 54.5509 87.1046 55.4463 86 55.4463C84.8954 55.4463 84 54.5509 84 53.4463V43.6689C84 42.5644 84.8954 41.6689 86 41.6689ZM18 42.5576C19.1046 42.5576 20 43.453 20 44.5576V52.5576C20 53.6622 19.1046 54.5576 18 54.5576C16.8954 54.5576 16 53.6622 16 52.5576V44.5576C16 43.453 16.8954 42.5576 18 42.5576ZM78 42.5576C79.1046 42.5576 80 43.453 80 44.5576V52.5576C80 53.6622 79.1046 54.5576 78 54.5576C76.8954 54.5576 76 53.6622 76 52.5576V44.5576C76 43.453 76.8954 42.5576 78 42.5576ZM22.6494 28.5684C23.6577 28.671 24.4443 29.5223 24.4443 30.5576C24.4443 31.593 23.6577 32.4442 22.6494 32.5469L22.4443 32.5576H20V34.5576C20 35.6622 19.1046 36.5576 18 36.5576C16.8954 36.5576 16 35.6622 16 34.5576V30.5576C16 29.453 16.8954 28.5576 18 28.5576H22.4443L22.6494 28.5684ZM78 28.5576C79.1046 28.5576 80 29.453 80 30.5576V34.5576C80 35.6622 79.1046 36.5576 78 36.5576C76.8954 36.5576 76 35.6622 76 34.5576V32.5576H73.5557C72.4511 32.5576 71.5557 31.6622 71.5557 30.5576C71.5557 29.453 72.4511 28.5576 73.5557 28.5576H78ZM16 22.5576C17.1046 22.5576 18 23.453 18 24.5576C18 25.6622 17.1046 26.5576 16 26.5576H12V31.4463C12 32.5509 11.1046 33.4463 10 33.4463C8.89543 33.4463 8 32.5509 8 31.4463V26.5576C8 24.3485 9.79086 22.5576 12 22.5576H16ZM84 22.5576C86.2091 22.5576 88 24.3485 88 26.5576V31.4463C88 32.5509 87.1046 33.4463 86 33.4463C84.8954 33.4463 84 32.5509 84 31.4463V26.5576H80C78.8954 26.5576 78 25.6622 78 24.5576C78 23.453 78.8954 22.5576 80 22.5576H84ZM42.4443 28.5576C43.5489 28.5576 44.4443 29.453 44.4443 30.5576C44.4443 31.6622 43.5489 32.5576 42.4443 32.5576H33.5557C32.4511 32.5576 31.5557 31.6622 31.5557 30.5576C31.5557 29.453 32.4511 28.5576 33.5557 28.5576H42.4443ZM62.4443 28.5576C63.5489 28.5576 64.4443 29.453 64.4443 30.5576C64.4443 31.6622 63.5489 32.5576 62.4443 32.5576H53.5557C52.4511 32.5576 51.5557 31.6622 51.5557 30.5576C51.5557 29.453 52.4511 28.5576 53.5557 28.5576H62.4443ZM34.2041 22.5684C35.2128 22.6706 36 23.522 36 24.5576C36 25.5933 35.2128 26.4446 34.2041 26.5469L34 26.5576H26C24.8954 26.5576 24 25.6622 24 24.5576C24 23.453 24.8954 22.5576 26 22.5576H34L34.2041 22.5684ZM52 22.5576C53.1046 22.5576 54 23.453 54 24.5576C54 25.6622 53.1046 26.5576 52 26.5576H44C42.8954 26.5576 42 25.6622 42 24.5576C42 23.453 42.8954 22.5576 44 22.5576H52ZM70 22.5576C71.1046 22.5576 72 23.453 72 24.5576C72 25.6622 71.1046 26.5576 70 26.5576H62C60.8954 26.5576 60 25.6622 60 24.5576C60 23.453 60.8954 22.5576 62 22.5576H70Z" fill="#0F59D4"/>
</svg>
