<svg width="96" height="97" viewBox="0 0 96 97" fill="none" xmlns="http://www.w3.org/2000/svg">
<path d="M4 19.5879C4 15.8983 7.29861 13.0826 10.9424 13.6621L86.9424 25.7529C89.8555 26.2164 92 28.7289 92 31.6787V76.5576L91.9922 76.8662C91.8367 79.9343 89.3767 82.3944 86.3086 82.5498L86 82.5576H10L9.69141 82.5498C6.62333 82.3944 4.16327 79.9343 4.00781 76.8662L4 76.5576V19.5879ZM10.3145 17.6123C9.17583 17.4312 8.13809 18.2447 8.0127 19.3604L8 19.5879V76.5576C8.00002 77.6622 8.89544 78.5576 10 78.5576H86C87.1046 78.5576 88 77.6622 88 76.5576V31.6787C88 30.6955 87.2854 29.8577 86.3145 29.7031L10.3145 17.6123ZM44.9521 63.3545C45.8928 62.7757 47.1243 63.0691 47.7031 64.0098L50.5537 68.6426L56.7998 63.958C57.6834 63.2953 58.9368 63.474 59.5996 64.3574C60.2623 65.241 60.0836 66.4944 59.2002 67.1572L51.2002 73.1572C50.7504 73.4945 50.1793 73.6273 49.627 73.5225C49.1436 73.4306 48.7134 73.1642 48.416 72.7783L48.2969 72.6055L44.2969 66.1055C43.7181 65.1648 44.0115 63.9334 44.9521 63.3545ZM53.8789 55.5693C54.9754 55.7019 55.7565 56.6984 55.624 57.7949C55.4955 58.8585 55.3343 59.9176 55.1406 60.9697C54.9405 62.0558 53.8977 62.7741 52.8115 62.5742C51.7254 62.3741 51.0071 61.3313 51.207 60.2451C51.3858 59.2739 51.5347 58.2962 51.6533 57.3145C51.786 56.2181 52.7825 55.4369 53.8789 55.5693ZM64.9521 44.8545C65.8928 44.2757 67.1243 44.5691 67.7031 45.5098L71.7031 52.0098C72.1279 52.7001 72.0939 53.5788 71.6172 54.2344L67.6172 59.7344C66.9674 60.6273 65.7164 60.8244 64.8232 60.1748C63.9303 59.5251 63.7333 58.274 64.3828 57.3809L67.5947 52.9639L64.2969 47.6055C63.7181 46.6648 64.0115 45.4334 64.9521 44.8545ZM37.9404 42.8613C38.877 42.2763 40.111 42.5615 40.6963 43.498C41.2813 44.4347 40.9961 45.6686 40.0596 46.2539L34.3438 49.8252L40.3174 55.0527C41.1483 55.7801 41.2321 57.0438 40.5049 57.875C39.7775 58.7059 38.5138 58.7897 37.6826 58.0625L29.6826 51.0625C29.2066 50.6458 28.9562 50.0282 29.0068 49.3975C29.0575 48.7667 29.4038 48.1967 29.9404 47.8613L37.9404 42.8613ZM60.1562 50.1104L62.6455 50.3369C63.7454 50.437 64.556 51.4099 64.4561 52.5098C64.3559 53.6098 63.3832 54.4204 62.2832 54.3203L59.7939 54.0938C58.6939 53.9936 57.8833 53.0209 57.9834 51.9209C58.0836 50.8209 59.0563 50.0102 60.1562 50.1104ZM54 49.5576C55.1046 49.5576 56 50.453 56 51.5576C56 52.6622 55.1046 53.5576 54 53.5576C52.8954 53.5576 52 52.6622 52 51.5576C52 50.453 52.8954 49.5576 54 49.5576ZM44.2217 48.6602L48.2051 49.0225C49.305 49.1226 50.1156 50.0954 50.0156 51.1953C49.9155 52.2953 48.9428 53.106 47.8428 53.0059L43.8594 52.6436C42.7594 52.5434 41.9489 51.5706 42.0488 50.4707C42.1489 49.3708 43.1217 48.5602 44.2217 48.6602ZM52.8115 40.54C53.8979 40.3401 54.9407 41.0592 55.1406 42.1455C55.3342 43.1975 55.4955 44.2559 55.624 45.3193C55.7565 46.4158 54.9754 47.4123 53.8789 47.5449C52.7824 47.6774 51.7859 46.8963 51.6533 45.7998C51.5347 44.8179 51.3858 43.8404 51.207 42.8691C51.0071 41.7829 51.7254 40.7401 52.8115 40.54ZM49.7363 29.5752C50.3072 29.4994 50.884 29.6735 51.3174 30.0527L59.3174 37.0527C60.1483 37.7801 60.2321 39.0438 59.5049 39.875C58.7775 40.7059 57.5138 40.7897 56.6826 40.0625L50.3984 34.5635L47.6641 38.667C47.0514 39.586 45.8097 39.8344 44.8906 39.2217C43.9716 38.609 43.7233 37.3673 44.3359 36.4482L48.3359 30.4482L48.4648 30.2764C48.7843 29.8936 49.237 29.6416 49.7363 29.5752Z" fill="#0F59D4"/>
</svg>
