<svg width="96" height="97" viewBox="0 0 96 97" fill="none" xmlns="http://www.w3.org/2000/svg">
<path d="M48.2127 23.3255C50.3409 25.6808 50.27 29.3171 48 31.5871L29.6153 49.9719C24.929 54.6582 24.929 62.2561 29.6153 66.9424C34.3016 71.6287 41.8995 71.6287 46.5858 66.9424L64.9706 48.5576C67.3138 46.2145 71.1127 46.2145 73.4559 48.5576L79.1127 54.2145L79.3254 54.4382C81.4536 56.7935 81.3827 60.4298 79.1127 62.6998L60.728 81.0846C48.2312 93.5813 27.9699 93.5813 15.4731 81.0846C2.97635 68.5878 2.97635 48.3265 15.4731 35.8297L33.8579 17.445C36.2011 15.1018 40 15.1018 42.3432 17.445L48 23.1018L48.2127 23.3255ZM62.1422 57.0429L49.4143 69.7709C43.2635 75.9216 33.3507 76.018 27.0824 70.0595L26.7868 69.7709C20.5385 63.5225 20.5385 53.3918 26.7868 47.1434L39.5148 34.4155L31.0295 25.9302L18.3016 38.6582C7.36688 49.5928 7.36688 67.3215 18.3016 78.2561C29.0654 89.02 46.4128 89.1884 57.3823 78.7609L57.8995 78.2561L70.6275 65.5282L62.1422 57.0429ZM70.6275 51.3861C69.8464 50.605 68.5801 50.605 67.799 51.3861L64.9706 54.2145L73.4559 62.6998L76.2843 59.8714C77.0654 59.0903 77.0654 57.824 76.2843 57.0429L70.6275 51.3861ZM39.5148 20.2734C38.7337 19.4923 37.4674 19.4923 36.6863 20.2734L33.8579 23.1018L42.3432 31.5871L45.1716 28.7587C45.9527 27.9776 45.9527 26.7113 45.1716 25.9302L39.5148 20.2734ZM69.2132 27.3444C71.6024 29.7336 73.1738 32.8178 73.7024 36.155C73.8752 37.2459 73.1306 38.2706 72.0396 38.4434C70.9489 38.6159 69.9248 37.8719 69.7519 36.7813C69.3554 34.2783 68.1767 31.9648 66.3848 30.1729C64.5929 28.381 62.2794 27.2023 59.7764 26.8058C58.6858 26.6329 57.9418 25.6088 58.1143 24.5181C58.2871 23.4271 59.3118 22.6825 60.4027 22.8553C63.7399 23.3839 66.8241 24.9553 69.2132 27.3444ZM74.8701 21.6876C78.4539 25.2714 80.8106 29.8979 81.6035 34.9037C81.7763 35.9947 81.0324 37.0187 79.9414 37.1915C78.8504 37.3642 77.8264 36.6203 77.6536 35.5293C76.9929 31.3578 75.0282 27.5025 72.0417 24.516C69.0552 21.5295 65.1999 19.5648 61.0283 18.904C59.9374 18.7313 59.1935 17.7072 59.3662 16.6163C59.539 15.5253 60.563 14.7814 61.654 14.9542C66.6598 15.7471 71.2863 18.1038 74.8701 21.6876ZM80.527 16.0307C85.3054 20.8092 88.4488 26.9779 89.506 33.6525C89.6786 34.7433 88.934 35.7681 87.8432 35.9409C86.7522 36.1137 85.7276 35.369 85.5547 34.2781C84.6297 28.4379 81.8797 23.0403 77.6985 18.8592C73.5174 14.678 68.1198 11.928 62.2796 11.003C61.1887 10.8301 60.444 9.80547 60.6168 8.71453C60.7896 7.62368 61.8144 6.87911 62.9052 7.05172C69.5797 8.10887 75.7485 11.2523 80.527 16.0307Z" fill="#0F59D4"/>
</svg>
