<svg width="324" height="105" viewBox="0 0 324 105" fill="none" xmlns="http://www.w3.org/2000/svg">
<path d="M307.807 15.6673V104.695H308.876C316.585 104.695 323.112 97.6839 323.112 89.3791V0.201269H322.042C314.184 0.201269 307.807 7.13753 307.807 15.6673ZM0 15.6673V104.695H1.06904C8.77735 104.695 15.3041 97.6839 15.3041 89.3791V0.201269H14.2351C6.39546 0.201269 0 7.13753 0 15.6673ZM273.861 0.632442C270.204 1.77599 267.24 4.41927 265.496 8.05612L228.267 87.3732L227.986 86.7546C222.153 74.0818 202.235 30.9083 190.964 7.75617C189.313 4.25055 186.444 1.701 182.88 0.576202C179.429 -0.492357 175.66 -0.0611848 172.527 1.75724L171.477 2.33839L215.158 95.9967C218.327 101.883 222.866 104.995 228.286 104.995C233.706 104.995 238.376 101.902 241.227 96.0154L285.114 2.63833L285.264 2.33839L284.232 1.77599C281.044 -0.0424381 277.368 -0.454864 273.861 0.632442ZM128.716 15.6673V104.695H129.785C137.493 104.695 144.02 97.6839 144.02 89.3791V0.201269H142.951C135.092 0.201269 128.716 7.13753 128.716 15.6673ZM37.6601 52.167C38.1102 51.8295 83.1223 18.7605 98.6327 6.89382C96.307 3.53817 92.7998 1.25108 88.9363 0.576202C88.1486 0.444975 87.3609 0.369989 86.5732 0.369989C83.7037 0.369989 80.9467 1.28857 78.6398 3.06951L24.0814 44.7808C21.5683 46.7117 20.1241 49.6549 20.1429 52.8606C20.1616 56.0663 21.6245 58.9908 24.1752 60.8842L79.8776 102.371C82.5033 104.339 85.8605 105.051 89.3114 104.395C93.2312 103.664 96.8884 101.208 99.2141 97.8151L36.9286 52.7294L37.6788 52.1857L37.6601 52.167Z" fill="white"/>
</svg>
