<svg width="601" height="161" viewBox="0 0 601 161" fill="none" xmlns="http://www.w3.org/2000/svg">
<mask id="path-1-outside-1_22_2818" maskUnits="userSpaceOnUse" x="-1" y="-0.00488281" width="602" height="161" fill="black">
<rect fill="white" x="-1" y="-0.00488281" width="602" height="161"/>
<path d="M66.961 64.6881C65.5435 65.4441 63.748 64.8771 62.992 63.3651L55.054 46.2606H12.907L5.0635 63.3651C4.3075 64.7826 2.512 65.4441 1 64.7826L28.3105 6.00361V5.90912C29.539 3.35761 31.618 1.84561 33.9805 1.84561C36.4375 1.84561 38.5165 3.35761 39.745 5.90912L66.961 64.6881ZM53.6365 43.2366L37.0045 7.23212C36.6265 6.47611 35.6815 4.86961 33.9805 4.86961C32.4685 4.86961 31.5235 6.19261 31.051 7.23212L14.3245 43.2366H53.6365Z"/>
<path d="M125.382 64.4046C125.382 64.4046 125.382 64.4046 82.0064 64.4046C80.3054 64.4046 78.9824 63.1761 78.9824 61.5696V2.03462C80.5889 2.03462 82.0064 3.26312 82.0064 4.86961V60.8136C82.0064 61.0971 82.1954 61.3806 82.4789 61.3806H122.452C124.059 61.3806 125.382 62.7036 125.382 64.4046Z"/>
<path d="M196.154 1.94012C196.154 1.94012 196.154 1.94012 196.154 33.6921C196.154 43.0476 193.036 51.0801 187.366 56.7501C181.979 62.0421 174.514 65.0661 166.198 65.0661C157.882 65.0661 150.416 62.0421 145.03 56.7501C139.36 51.0801 136.241 43.0476 136.241 33.6921V1.94012C137.942 1.94012 139.265 3.35761 139.265 4.96412V33.4086C139.265 50.5131 150.133 62.0421 166.198 62.0421C182.357 62.0421 193.13 50.5131 193.13 33.4086V4.96412C193.13 3.35761 194.453 1.94012 196.154 1.94012Z"/>
<path d="M279.004 65.0661C277.303 64.9716 275.98 63.6486 275.98 62.0421V6.57061L249.426 57.6006C248.386 59.4906 247.063 60.5301 245.551 60.5301C243.945 60.5301 242.622 59.4906 241.677 57.6006L215.122 6.57061V62.3256C214.933 63.8376 213.705 64.9716 212.098 65.0661V4.01911C212.193 2.88512 213.232 1.94012 214.555 1.94012C215.5 1.94012 216.351 2.41262 216.729 3.16862L244.323 56.1831C244.512 56.5611 245.079 57.5061 245.551 57.5061C246.024 57.5061 246.496 56.5611 246.685 56.1831L274.279 3.16862H274.374C274.752 2.41262 275.508 1.94012 276.547 1.94012C277.776 1.94012 279.004 2.88512 279.004 4.01911V65.0661Z"/>
<path d="M300.021 65.0661H299.926C298.32 65.0661 296.997 63.6486 296.997 62.1366V1.94012C298.698 1.94012 300.021 3.26312 300.021 4.86961V65.0661Z"/>
<path d="M376.861 34.7316C376.2 51.5526 362.403 65.0661 345.487 65.0661C328.099 65.0661 314.019 50.8911 314.019 33.4086C314.019 16.0206 328.099 1.84561 345.487 1.84561C351.913 1.84561 358.15 3.73562 363.442 7.42111C368.262 10.8231 371.947 15.4536 374.31 20.7456C372.892 21.5016 371.191 21.0291 370.435 19.7061C365.427 10.6341 356.071 4.86961 345.487 4.86961C329.8 4.86961 317.043 17.6271 317.043 33.4086C317.043 49.1901 329.8 62.0421 345.487 62.0421C360.513 62.0421 372.892 50.1351 373.837 35.2986C373.743 35.1096 373.554 34.9206 373.27 34.9206H352.858C351.157 34.9206 349.834 33.5976 349.834 31.8966H373.932C375.538 31.8966 376.956 33.1251 376.861 34.7316Z"/>
<path d="M437.269 64.4046C437.269 64.4046 437.269 64.4046 393.893 64.4046C392.192 64.4046 390.869 63.1761 390.869 61.5696V2.03462C392.476 2.03462 393.893 3.26312 393.893 4.86961V60.8136C393.893 61.0971 394.082 61.3806 394.366 61.3806H434.339C435.946 61.3806 437.269 62.7036 437.269 64.4046Z"/>
<path d="M502.438 33.2196C502.438 50.9856 488.074 65.4441 470.403 65.4441C452.731 65.4441 438.367 50.9856 438.367 33.2196C438.367 15.4536 452.731 0.995117 470.403 0.995117C488.074 0.995117 502.438 15.4536 502.438 33.2196ZM499.414 33.2196C499.414 17.1546 486.468 4.01911 470.403 4.01911C454.432 4.01911 441.391 17.1546 441.391 33.2196C441.391 49.3791 454.432 62.4201 470.403 62.4201C486.468 62.4201 499.414 49.3791 499.414 33.2196Z"/>
<path d="M599.697 2.12911L579.096 60.9081C578.151 63.5541 576.45 65.1606 574.371 65.1606C572.386 65.1606 570.685 63.5541 569.74 60.9081L554.998 18.7611L540.256 60.9081C539.311 63.5541 537.61 65.1606 535.531 65.1606C533.547 65.1606 531.846 63.5541 530.901 60.9081L510.3 2.12911C511.906 1.56212 513.607 2.31812 514.174 3.92461L533.736 59.8686C534.114 61.0026 534.775 62.1366 535.531 62.1366C536.193 62.1366 536.949 61.1916 537.327 59.9631L552.636 16.3041C552.919 15.4536 553.864 14.8866 554.998 14.8866C556.038 14.8866 557.077 15.4536 557.361 16.3986L572.575 59.9631C572.953 61.0026 573.709 62.1366 574.371 62.1366C575.032 62.1366 575.788 61.1916 576.166 59.9631L595.822 3.92461C596.389 2.31812 598.09 1.56212 599.697 2.12911Z"/>
<path d="M54.2035 96.4126C54.2035 98.0191 52.8805 99.4366 51.1795 99.4366H29.161V158.972C27.46 158.972 26.137 157.743 26.137 156.137V99.4366H4.024C2.323 99.4366 1 98.0191 1 96.4126H54.2035Z"/>
<path d="M128.052 96.2236L100.269 155.003C99.1353 157.554 96.9618 159.066 94.5993 159.066C92.1423 159.066 90.0633 157.649 88.8348 155.003L61.0518 96.2236C62.5638 95.5621 64.3593 96.2236 65.1153 97.7356L91.5753 153.68C92.0478 154.814 92.9928 156.042 94.5993 156.042C96.3003 156.042 97.2453 154.436 97.5288 153.774L123.989 97.7356C124.745 96.2236 126.54 95.5621 128.052 96.2236Z"/>
<path d="M238.03 159.066C236.329 158.972 235.006 157.649 235.006 156.042V100.571L208.451 151.601C207.412 153.491 206.089 154.53 204.577 154.53C202.97 154.53 201.647 153.491 200.702 151.601L174.148 100.571V156.326C173.959 157.838 172.73 158.972 171.124 159.066V98.0191C171.218 96.8851 172.258 95.9401 173.581 95.9401C174.526 95.9401 175.376 96.4126 175.754 97.1686L203.348 150.183C203.537 150.561 204.104 151.506 204.577 151.506C205.049 151.506 205.522 150.561 205.711 150.183L233.305 97.1686H233.399C233.777 96.4126 234.533 95.9401 235.573 95.9401C236.801 95.9401 238.03 96.8851 238.03 98.0191V159.066Z"/>
<path d="M315.085 127.22C315.085 144.986 300.721 159.444 283.049 159.444C265.378 159.444 251.014 144.986 251.014 127.22C251.014 109.454 265.378 94.9951 283.049 94.9951C300.721 94.9951 315.085 109.454 315.085 127.22ZM312.061 127.22C312.061 111.155 299.114 98.0191 283.049 98.0191C267.079 98.0191 254.038 111.155 254.038 127.22C254.038 143.379 267.079 156.42 283.049 156.42C299.114 156.42 312.061 143.379 312.061 127.22Z"/>
<path d="M386.922 95.9401C386.922 95.9401 386.922 95.9401 386.922 127.692C386.922 137.048 383.804 145.08 378.134 150.75C372.747 156.042 365.282 159.066 356.966 159.066C348.65 159.066 341.184 156.042 335.798 150.75C330.128 145.08 327.009 137.048 327.009 127.692V95.9401C328.71 95.9401 330.033 97.3576 330.033 98.9641V127.409C330.033 144.513 340.901 156.042 356.966 156.042C373.125 156.042 383.898 144.513 383.898 127.409V98.9641C383.898 97.3576 385.221 95.9401 386.922 95.9401Z"/>
<path d="M455.975 156.042C455.975 157.649 454.747 158.972 453.235 158.972C452.384 158.972 451.628 158.594 451.061 157.932L405.89 99.7201V156.042C405.89 157.743 404.473 158.972 402.866 159.066V98.9641C402.866 97.3576 404.095 95.9401 405.607 95.9401C406.363 95.9401 407.024 96.3181 407.497 96.8851L452.951 155.475V98.8696C452.951 97.2631 454.369 95.9401 455.975 95.9401V156.042Z"/>
<path d="M521.078 96.4126C521.078 98.0191 519.755 99.4366 518.054 99.4366H496.035V158.972C494.334 158.972 493.011 157.743 493.011 156.137V99.4366H470.898C469.197 99.4366 467.874 98.0191 467.874 96.4126H521.078Z"/>
</mask>
<path d="M66.961 64.6881C65.5435 65.4441 63.748 64.8771 62.992 63.3651L55.054 46.2606H12.907L5.0635 63.3651C4.3075 64.7826 2.512 65.4441 1 64.7826L28.3105 6.00361V5.90912C29.539 3.35761 31.618 1.84561 33.9805 1.84561C36.4375 1.84561 38.5165 3.35761 39.745 5.90912L66.961 64.6881ZM53.6365 43.2366L37.0045 7.23212C36.6265 6.47611 35.6815 4.86961 33.9805 4.86961C32.4685 4.86961 31.5235 6.19261 31.051 7.23212L14.3245 43.2366H53.6365Z" fill="white"/>
<path d="M125.382 64.4046C125.382 64.4046 125.382 64.4046 82.0064 64.4046C80.3054 64.4046 78.9824 63.1761 78.9824 61.5696V2.03462C80.5889 2.03462 82.0064 3.26312 82.0064 4.86961V60.8136C82.0064 61.0971 82.1954 61.3806 82.4789 61.3806H122.452C124.059 61.3806 125.382 62.7036 125.382 64.4046Z" fill="white"/>
<path d="M196.154 1.94012C196.154 1.94012 196.154 1.94012 196.154 33.6921C196.154 43.0476 193.036 51.0801 187.366 56.7501C181.979 62.0421 174.514 65.0661 166.198 65.0661C157.882 65.0661 150.416 62.0421 145.03 56.7501C139.36 51.0801 136.241 43.0476 136.241 33.6921V1.94012C137.942 1.94012 139.265 3.35761 139.265 4.96412V33.4086C139.265 50.5131 150.133 62.0421 166.198 62.0421C182.357 62.0421 193.13 50.5131 193.13 33.4086V4.96412C193.13 3.35761 194.453 1.94012 196.154 1.94012Z" fill="white"/>
<path d="M279.004 65.0661C277.303 64.9716 275.98 63.6486 275.98 62.0421V6.57061L249.426 57.6006C248.386 59.4906 247.063 60.5301 245.551 60.5301C243.945 60.5301 242.622 59.4906 241.677 57.6006L215.122 6.57061V62.3256C214.933 63.8376 213.705 64.9716 212.098 65.0661V4.01911C212.193 2.88512 213.232 1.94012 214.555 1.94012C215.5 1.94012 216.351 2.41262 216.729 3.16862L244.323 56.1831C244.512 56.5611 245.079 57.5061 245.551 57.5061C246.024 57.5061 246.496 56.5611 246.685 56.1831L274.279 3.16862H274.374C274.752 2.41262 275.508 1.94012 276.547 1.94012C277.776 1.94012 279.004 2.88512 279.004 4.01911V65.0661Z" fill="white"/>
<path d="M300.021 65.0661H299.926C298.32 65.0661 296.997 63.6486 296.997 62.1366V1.94012C298.698 1.94012 300.021 3.26312 300.021 4.86961V65.0661Z" fill="white"/>
<path d="M376.861 34.7316C376.2 51.5526 362.403 65.0661 345.487 65.0661C328.099 65.0661 314.019 50.8911 314.019 33.4086C314.019 16.0206 328.099 1.84561 345.487 1.84561C351.913 1.84561 358.15 3.73562 363.442 7.42111C368.262 10.8231 371.947 15.4536 374.31 20.7456C372.892 21.5016 371.191 21.0291 370.435 19.7061C365.427 10.6341 356.071 4.86961 345.487 4.86961C329.8 4.86961 317.043 17.6271 317.043 33.4086C317.043 49.1901 329.8 62.0421 345.487 62.0421C360.513 62.0421 372.892 50.1351 373.837 35.2986C373.743 35.1096 373.554 34.9206 373.27 34.9206H352.858C351.157 34.9206 349.834 33.5976 349.834 31.8966H373.932C375.538 31.8966 376.956 33.1251 376.861 34.7316Z" fill="white"/>
<path d="M437.269 64.4046C437.269 64.4046 437.269 64.4046 393.893 64.4046C392.192 64.4046 390.869 63.1761 390.869 61.5696V2.03462C392.476 2.03462 393.893 3.26312 393.893 4.86961V60.8136C393.893 61.0971 394.082 61.3806 394.366 61.3806H434.339C435.946 61.3806 437.269 62.7036 437.269 64.4046Z" fill="white"/>
<path d="M502.438 33.2196C502.438 50.9856 488.074 65.4441 470.403 65.4441C452.731 65.4441 438.367 50.9856 438.367 33.2196C438.367 15.4536 452.731 0.995117 470.403 0.995117C488.074 0.995117 502.438 15.4536 502.438 33.2196ZM499.414 33.2196C499.414 17.1546 486.468 4.01911 470.403 4.01911C454.432 4.01911 441.391 17.1546 441.391 33.2196C441.391 49.3791 454.432 62.4201 470.403 62.4201C486.468 62.4201 499.414 49.3791 499.414 33.2196Z" fill="white"/>
<path d="M599.697 2.12911L579.096 60.9081C578.151 63.5541 576.45 65.1606 574.371 65.1606C572.386 65.1606 570.685 63.5541 569.74 60.9081L554.998 18.7611L540.256 60.9081C539.311 63.5541 537.61 65.1606 535.531 65.1606C533.547 65.1606 531.846 63.5541 530.901 60.9081L510.3 2.12911C511.906 1.56212 513.607 2.31812 514.174 3.92461L533.736 59.8686C534.114 61.0026 534.775 62.1366 535.531 62.1366C536.193 62.1366 536.949 61.1916 537.327 59.9631L552.636 16.3041C552.919 15.4536 553.864 14.8866 554.998 14.8866C556.038 14.8866 557.077 15.4536 557.361 16.3986L572.575 59.9631C572.953 61.0026 573.709 62.1366 574.371 62.1366C575.032 62.1366 575.788 61.1916 576.166 59.9631L595.822 3.92461C596.389 2.31812 598.09 1.56212 599.697 2.12911Z" fill="white"/>
<path d="M54.2035 96.4126C54.2035 98.0191 52.8805 99.4366 51.1795 99.4366H29.161V158.972C27.46 158.972 26.137 157.743 26.137 156.137V99.4366H4.024C2.323 99.4366 1 98.0191 1 96.4126H54.2035Z" fill="white"/>
<path d="M128.052 96.2236L100.269 155.003C99.1353 157.554 96.9618 159.066 94.5993 159.066C92.1423 159.066 90.0633 157.649 88.8348 155.003L61.0518 96.2236C62.5638 95.5621 64.3593 96.2236 65.1153 97.7356L91.5753 153.68C92.0478 154.814 92.9928 156.042 94.5993 156.042C96.3003 156.042 97.2453 154.436 97.5288 153.774L123.989 97.7356C124.745 96.2236 126.54 95.5621 128.052 96.2236Z" fill="white"/>
<path d="M238.03 159.066C236.329 158.972 235.006 157.649 235.006 156.042V100.571L208.451 151.601C207.412 153.491 206.089 154.53 204.577 154.53C202.97 154.53 201.647 153.491 200.702 151.601L174.148 100.571V156.326C173.959 157.838 172.73 158.972 171.124 159.066V98.0191C171.218 96.8851 172.258 95.9401 173.581 95.9401C174.526 95.9401 175.376 96.4126 175.754 97.1686L203.348 150.183C203.537 150.561 204.104 151.506 204.577 151.506C205.049 151.506 205.522 150.561 205.711 150.183L233.305 97.1686H233.399C233.777 96.4126 234.533 95.9401 235.573 95.9401C236.801 95.9401 238.03 96.8851 238.03 98.0191V159.066Z" fill="white"/>
<path d="M315.085 127.22C315.085 144.986 300.721 159.444 283.049 159.444C265.378 159.444 251.014 144.986 251.014 127.22C251.014 109.454 265.378 94.9951 283.049 94.9951C300.721 94.9951 315.085 109.454 315.085 127.22ZM312.061 127.22C312.061 111.155 299.114 98.0191 283.049 98.0191C267.079 98.0191 254.038 111.155 254.038 127.22C254.038 143.379 267.079 156.42 283.049 156.42C299.114 156.42 312.061 143.379 312.061 127.22Z" fill="white"/>
<path d="M386.922 95.9401C386.922 95.9401 386.922 95.9401 386.922 127.692C386.922 137.048 383.804 145.08 378.134 150.75C372.747 156.042 365.282 159.066 356.966 159.066C348.65 159.066 341.184 156.042 335.798 150.75C330.128 145.08 327.009 137.048 327.009 127.692V95.9401C328.71 95.9401 330.033 97.3576 330.033 98.9641V127.409C330.033 144.513 340.901 156.042 356.966 156.042C373.125 156.042 383.898 144.513 383.898 127.409V98.9641C383.898 97.3576 385.221 95.9401 386.922 95.9401Z" fill="white"/>
<path d="M455.975 156.042C455.975 157.649 454.747 158.972 453.235 158.972C452.384 158.972 451.628 158.594 451.061 157.932L405.89 99.7201V156.042C405.89 157.743 404.473 158.972 402.866 159.066V98.9641C402.866 97.3576 404.095 95.9401 405.607 95.9401C406.363 95.9401 407.024 96.3181 407.497 96.8851L452.951 155.475V98.8696C452.951 97.2631 454.369 95.9401 455.975 95.9401V156.042Z" fill="white"/>
<path d="M521.078 96.4126C521.078 98.0191 519.755 99.4366 518.054 99.4366H496.035V158.972C494.334 158.972 493.011 157.743 493.011 156.137V99.4366H470.898C469.197 99.4366 467.874 98.0191 467.874 96.4126H521.078Z" fill="white"/>
<path d="M66.961 64.6881C65.5435 65.4441 63.748 64.8771 62.992 63.3651L55.054 46.2606H12.907L5.0635 63.3651C4.3075 64.7826 2.512 65.4441 1 64.7826L28.3105 6.00361V5.90912C29.539 3.35761 31.618 1.84561 33.9805 1.84561C36.4375 1.84561 38.5165 3.35761 39.745 5.90912L66.961 64.6881ZM53.6365 43.2366L37.0045 7.23212C36.6265 6.47611 35.6815 4.86961 33.9805 4.86961C32.4685 4.86961 31.5235 6.19261 31.051 7.23212L14.3245 43.2366H53.6365Z" stroke="white" stroke-width="1.5" mask="url(#path-1-outside-1_22_2818)"/>
<path d="M125.382 64.4046C125.382 64.4046 125.382 64.4046 82.0064 64.4046C80.3054 64.4046 78.9824 63.1761 78.9824 61.5696V2.03462C80.5889 2.03462 82.0064 3.26312 82.0064 4.86961V60.8136C82.0064 61.0971 82.1954 61.3806 82.4789 61.3806H122.452C124.059 61.3806 125.382 62.7036 125.382 64.4046Z" stroke="white" stroke-width="1.5" mask="url(#path-1-outside-1_22_2818)"/>
<path d="M196.154 1.94012C196.154 1.94012 196.154 1.94012 196.154 33.6921C196.154 43.0476 193.036 51.0801 187.366 56.7501C181.979 62.0421 174.514 65.0661 166.198 65.0661C157.882 65.0661 150.416 62.0421 145.03 56.7501C139.36 51.0801 136.241 43.0476 136.241 33.6921V1.94012C137.942 1.94012 139.265 3.35761 139.265 4.96412V33.4086C139.265 50.5131 150.133 62.0421 166.198 62.0421C182.357 62.0421 193.13 50.5131 193.13 33.4086V4.96412C193.13 3.35761 194.453 1.94012 196.154 1.94012Z" stroke="white" stroke-width="1.5" mask="url(#path-1-outside-1_22_2818)"/>
<path d="M279.004 65.0661C277.303 64.9716 275.98 63.6486 275.98 62.0421V6.57061L249.426 57.6006C248.386 59.4906 247.063 60.5301 245.551 60.5301C243.945 60.5301 242.622 59.4906 241.677 57.6006L215.122 6.57061V62.3256C214.933 63.8376 213.705 64.9716 212.098 65.0661V4.01911C212.193 2.88512 213.232 1.94012 214.555 1.94012C215.5 1.94012 216.351 2.41262 216.729 3.16862L244.323 56.1831C244.512 56.5611 245.079 57.5061 245.551 57.5061C246.024 57.5061 246.496 56.5611 246.685 56.1831L274.279 3.16862H274.374C274.752 2.41262 275.508 1.94012 276.547 1.94012C277.776 1.94012 279.004 2.88512 279.004 4.01911V65.0661Z" stroke="white" stroke-width="1.5" mask="url(#path-1-outside-1_22_2818)"/>
<path d="M300.021 65.0661H299.926C298.32 65.0661 296.997 63.6486 296.997 62.1366V1.94012C298.698 1.94012 300.021 3.26312 300.021 4.86961V65.0661Z" stroke="white" stroke-width="1.5" mask="url(#path-1-outside-1_22_2818)"/>
<path d="M376.861 34.7316C376.2 51.5526 362.403 65.0661 345.487 65.0661C328.099 65.0661 314.019 50.8911 314.019 33.4086C314.019 16.0206 328.099 1.84561 345.487 1.84561C351.913 1.84561 358.15 3.73562 363.442 7.42111C368.262 10.8231 371.947 15.4536 374.31 20.7456C372.892 21.5016 371.191 21.0291 370.435 19.7061C365.427 10.6341 356.071 4.86961 345.487 4.86961C329.8 4.86961 317.043 17.6271 317.043 33.4086C317.043 49.1901 329.8 62.0421 345.487 62.0421C360.513 62.0421 372.892 50.1351 373.837 35.2986C373.743 35.1096 373.554 34.9206 373.27 34.9206H352.858C351.157 34.9206 349.834 33.5976 349.834 31.8966H373.932C375.538 31.8966 376.956 33.1251 376.861 34.7316Z" stroke="white" stroke-width="1.5" mask="url(#path-1-outside-1_22_2818)"/>
<path d="M437.269 64.4046C437.269 64.4046 437.269 64.4046 393.893 64.4046C392.192 64.4046 390.869 63.1761 390.869 61.5696V2.03462C392.476 2.03462 393.893 3.26312 393.893 4.86961V60.8136C393.893 61.0971 394.082 61.3806 394.366 61.3806H434.339C435.946 61.3806 437.269 62.7036 437.269 64.4046Z" stroke="white" stroke-width="1.5" mask="url(#path-1-outside-1_22_2818)"/>
<path d="M502.438 33.2196C502.438 50.9856 488.074 65.4441 470.403 65.4441C452.731 65.4441 438.367 50.9856 438.367 33.2196C438.367 15.4536 452.731 0.995117 470.403 0.995117C488.074 0.995117 502.438 15.4536 502.438 33.2196ZM499.414 33.2196C499.414 17.1546 486.468 4.01911 470.403 4.01911C454.432 4.01911 441.391 17.1546 441.391 33.2196C441.391 49.3791 454.432 62.4201 470.403 62.4201C486.468 62.4201 499.414 49.3791 499.414 33.2196Z" stroke="white" stroke-width="1.5" mask="url(#path-1-outside-1_22_2818)"/>
<path d="M599.697 2.12911L579.096 60.9081C578.151 63.5541 576.45 65.1606 574.371 65.1606C572.386 65.1606 570.685 63.5541 569.74 60.9081L554.998 18.7611L540.256 60.9081C539.311 63.5541 537.61 65.1606 535.531 65.1606C533.547 65.1606 531.846 63.5541 530.901 60.9081L510.3 2.12911C511.906 1.56212 513.607 2.31812 514.174 3.92461L533.736 59.8686C534.114 61.0026 534.775 62.1366 535.531 62.1366C536.193 62.1366 536.949 61.1916 537.327 59.9631L552.636 16.3041C552.919 15.4536 553.864 14.8866 554.998 14.8866C556.038 14.8866 557.077 15.4536 557.361 16.3986L572.575 59.9631C572.953 61.0026 573.709 62.1366 574.371 62.1366C575.032 62.1366 575.788 61.1916 576.166 59.9631L595.822 3.92461C596.389 2.31812 598.09 1.56212 599.697 2.12911Z" stroke="white" stroke-width="1.5" mask="url(#path-1-outside-1_22_2818)"/>
<path d="M54.2035 96.4126C54.2035 98.0191 52.8805 99.4366 51.1795 99.4366H29.161V158.972C27.46 158.972 26.137 157.743 26.137 156.137V99.4366H4.024C2.323 99.4366 1 98.0191 1 96.4126H54.2035Z" stroke="white" stroke-width="1.5" mask="url(#path-1-outside-1_22_2818)"/>
<path d="M128.052 96.2236L100.269 155.003C99.1353 157.554 96.9618 159.066 94.5993 159.066C92.1423 159.066 90.0633 157.649 88.8348 155.003L61.0518 96.2236C62.5638 95.5621 64.3593 96.2236 65.1153 97.7356L91.5753 153.68C92.0478 154.814 92.9928 156.042 94.5993 156.042C96.3003 156.042 97.2453 154.436 97.5288 153.774L123.989 97.7356C124.745 96.2236 126.54 95.5621 128.052 96.2236Z" stroke="white" stroke-width="1.5" mask="url(#path-1-outside-1_22_2818)"/>
<path d="M238.03 159.066C236.329 158.972 235.006 157.649 235.006 156.042V100.571L208.451 151.601C207.412 153.491 206.089 154.53 204.577 154.53C202.97 154.53 201.647 153.491 200.702 151.601L174.148 100.571V156.326C173.959 157.838 172.73 158.972 171.124 159.066V98.0191C171.218 96.8851 172.258 95.9401 173.581 95.9401C174.526 95.9401 175.376 96.4126 175.754 97.1686L203.348 150.183C203.537 150.561 204.104 151.506 204.577 151.506C205.049 151.506 205.522 150.561 205.711 150.183L233.305 97.1686H233.399C233.777 96.4126 234.533 95.9401 235.573 95.9401C236.801 95.9401 238.03 96.8851 238.03 98.0191V159.066Z" stroke="white" stroke-width="1.5" mask="url(#path-1-outside-1_22_2818)"/>
<path d="M315.085 127.22C315.085 144.986 300.721 159.444 283.049 159.444C265.378 159.444 251.014 144.986 251.014 127.22C251.014 109.454 265.378 94.9951 283.049 94.9951C300.721 94.9951 315.085 109.454 315.085 127.22ZM312.061 127.22C312.061 111.155 299.114 98.0191 283.049 98.0191C267.079 98.0191 254.038 111.155 254.038 127.22C254.038 143.379 267.079 156.42 283.049 156.42C299.114 156.42 312.061 143.379 312.061 127.22Z" stroke="white" stroke-width="1.5" mask="url(#path-1-outside-1_22_2818)"/>
<path d="M386.922 95.9401C386.922 95.9401 386.922 95.9401 386.922 127.692C386.922 137.048 383.804 145.08 378.134 150.75C372.747 156.042 365.282 159.066 356.966 159.066C348.65 159.066 341.184 156.042 335.798 150.75C330.128 145.08 327.009 137.048 327.009 127.692V95.9401C328.71 95.9401 330.033 97.3576 330.033 98.9641V127.409C330.033 144.513 340.901 156.042 356.966 156.042C373.125 156.042 383.898 144.513 383.898 127.409V98.9641C383.898 97.3576 385.221 95.9401 386.922 95.9401Z" stroke="white" stroke-width="1.5" mask="url(#path-1-outside-1_22_2818)"/>
<path d="M455.975 156.042C455.975 157.649 454.747 158.972 453.235 158.972C452.384 158.972 451.628 158.594 451.061 157.932L405.89 99.7201V156.042C405.89 157.743 404.473 158.972 402.866 159.066V98.9641C402.866 97.3576 404.095 95.9401 405.607 95.9401C406.363 95.9401 407.024 96.3181 407.497 96.8851L452.951 155.475V98.8696C452.951 97.2631 454.369 95.9401 455.975 95.9401V156.042Z" stroke="white" stroke-width="1.5" mask="url(#path-1-outside-1_22_2818)"/>
<path d="M521.078 96.4126C521.078 98.0191 519.755 99.4366 518.054 99.4366H496.035V158.972C494.334 158.972 493.011 157.743 493.011 156.137V99.4366H470.898C469.197 99.4366 467.874 98.0191 467.874 96.4126H521.078Z" stroke="white" stroke-width="1.5" mask="url(#path-1-outside-1_22_2818)"/>
</svg>
