<svg width="70" height="71" viewBox="0 0 70 71" fill="none" xmlns="http://www.w3.org/2000/svg">
<path d="M38.385 11.4605C43.3909 12.2534 48.0173 14.6106 51.6011 18.1945C55.185 21.7783 57.5422 26.4047 58.3351 31.4106" stroke="#FFC700" stroke-width="3" stroke-linecap="round"/>
<path d="M53.3527 45.5156L53.712 46.9719L53.3527 45.5156ZM55.1568 47.6168L53.8749 46.8378L55.1568 47.6168ZM53.3527 45.5156L52.9935 44.0592C45.592 45.885 37.4509 43.905 31.6718 38.126L30.6112 39.1866L29.5505 40.2473C36.1028 46.7995 45.3331 49.0388 53.712 46.9719L53.3527 45.5156ZM30.6112 39.1866L31.6718 38.126C25.8931 32.3472 23.913 24.2067 25.7383 16.8056L24.2819 16.4464L22.8256 16.0872C20.7593 24.4657 22.9986 33.6954 29.5505 40.2473L30.6112 39.1866ZM17.662 18.1955L18.7226 19.2561C20.028 17.9508 21.4522 16.8405 22.9596 15.9243L22.1805 14.6425L21.4015 13.3607C19.6909 14.4004 18.0773 15.6588 16.6013 17.1348L17.662 18.1955ZM17.662 52.1366L18.7226 51.0759C9.93583 42.2891 9.93583 28.0429 18.7226 19.2561L17.662 18.1955L16.6013 17.1348C6.64294 27.0932 6.64294 43.2389 16.6013 53.1972L17.662 52.1366ZM51.6031 52.1366L50.5424 51.0759C41.7556 59.8627 27.5094 59.8627 18.7226 51.0759L17.662 52.1366L16.6013 53.1972C26.5597 63.1556 42.7054 63.1556 52.6638 53.1972L51.6031 52.1366ZM55.1568 47.6168L53.8749 46.8378C52.9586 48.3457 51.8481 49.7703 50.5424 51.0759L51.6031 52.1366L52.6638 53.1972C54.1401 51.7209 55.3988 50.1069 56.4386 48.3959L55.1568 47.6168ZM24.2819 16.4464L25.7383 16.8056C26.0395 15.5844 25.5905 14.3991 24.7765 13.6756C23.9309 12.9241 22.6113 12.6253 21.4015 13.3607L22.1805 14.6425L22.9596 15.9243C22.9661 15.9203 22.9559 15.9276 22.9299 15.9332C22.904 15.9388 22.8749 15.9401 22.8468 15.9366C22.7912 15.9295 22.7734 15.909 22.7836 15.918C22.7942 15.9275 22.8124 15.9504 22.8233 15.9838C22.8326 16.0121 22.8359 16.0452 22.8256 16.0872L24.2819 16.4464ZM53.3527 45.5156L53.712 46.9719C53.754 46.9615 53.7871 46.9649 53.8154 46.9741C53.8489 46.985 53.8717 47.0032 53.8812 47.0139C53.8902 47.024 53.8697 47.0062 53.8627 46.9506C53.8591 46.9226 53.8604 46.8935 53.866 46.8676C53.8717 46.8415 53.8789 46.8313 53.8749 46.8378L55.1568 47.6168L56.4386 48.3959C57.1739 47.1859 56.8751 45.8664 56.1235 45.0208C55.4 44.2068 54.2147 43.758 52.9935 44.0592L53.3527 45.5156Z" fill="#FFC700"/>
</svg>
