<svg width="72" height="71" viewBox="0 0 72 71" fill="none" xmlns="http://www.w3.org/2000/svg">
<path d="M37 8.27734L37 11.2773" stroke="#FFC700" stroke-width="3" stroke-linecap="round"/>
<path d="M64 35.2773C64 38.823 63.3016 42.334 61.9447 45.6098C60.5879 48.8856 58.5991 51.862 56.0919 54.3692C53.5847 56.8764 50.6082 58.8652 47.3325 60.2221C44.0567 61.579 40.5457 62.2773 37 62.2773C33.4543 62.2773 29.9433 61.579 26.6675 60.2221C23.3918 58.8652 20.4153 56.8764 17.9081 54.3692C15.4009 51.862 13.4121 48.8856 12.0553 45.6098C10.6984 42.334 10 38.823 10 35.2773" stroke="white" stroke-width="3" stroke-linecap="round"/>
<path d="M23.5 11.8946L25 14.4927" stroke="#FF0202" stroke-width="3" stroke-linecap="round"/>
<path d="M60.3871 21.7773L57.7891 23.2773" stroke="#FF0202" stroke-width="3" stroke-linecap="round"/>
<path d="M50.5 11.8946L49 14.4927" stroke="#0094FF" stroke-width="3" stroke-linecap="round"/>
<path d="M13.6129 21.7773L16.2109 23.2773" stroke="#0094FF" stroke-width="3" stroke-linecap="round"/>
<path d="M8.81127 34.3816C9.30596 33.7171 10.2457 33.5795 10.9102 34.0741L21.739 42.1357C22.4035 42.6303 22.5411 43.5701 22.0464 44.2346C21.5517 44.8991 20.612 45.0367 19.9475 44.542L10.3219 37.3763L3.15616 47.0018C2.66146 47.6663 1.72174 47.804 1.05724 47.3093C0.392731 46.8146 0.25507 45.8749 0.749763 45.2104L8.81127 34.3816ZM64 35.2773H65.5C65.5 51.4407 52.7294 61.9382 39.3362 63.17C32.6121 63.7885 25.6511 62.0911 19.9803 57.5704C14.2992 53.0416 10.0369 45.7793 8.5303 35.4948L10.0145 35.2773L11.4986 35.0599C12.9142 44.723 16.8612 51.2473 21.8503 55.2246C26.8497 59.21 33.0198 60.7383 39.0615 60.1826C51.2 59.0662 62.5 49.6159 62.5 35.2773H64Z" fill="white"/>
<path d="M27.656 49.7773V27.3773H31.944L41.48 43.1853H39.208L48.584 27.3773H52.84L52.904 49.7773H48.04L48.008 34.8333H48.904L41.416 47.4093H39.08L31.432 34.8333H32.52V49.7773H27.656Z" fill="white"/>
</svg>
