<svg width="70" height="71" viewBox="0 0 70 71" fill="none" xmlns="http://www.w3.org/2000/svg">
<path d="M62.4609 45.7588C61.2848 49.3183 59.4606 52.5512 56.959 55.2686C52.1404 60.5016 44.9924 63.627 35.7227 63.627C30.7198 63.627 26.3373 62.7132 22.6025 61.0537C23.7073 60.2688 24.6384 59.2648 25.3389 58.1035C28.3004 59.227 31.7546 59.8555 35.7227 59.8555C44.1005 59.8555 50.1825 57.0577 54.1846 52.7129H54.1855C55.3824 51.408 56.4095 49.9573 57.2451 48.3965C59.1834 47.9765 60.9775 47.0667 62.4609 45.7588ZM11.2939 6.92773H35.7227C44.3576 6.92773 51.1496 9.64046 55.9355 14.2412C55.9327 14.2985 55.9297 14.3552 55.9297 14.4111C55.9297 15.7669 54.7762 16.8057 53.5352 16.8057C53.4148 16.8057 53.2963 16.8127 53.1797 16.8232C49.19 13.064 43.4264 10.6992 35.7227 10.6992C34.2646 10.6959 32.8077 10.7863 31.3613 10.9707L31.3105 10.9775L11.4434 30.8447L11.4365 30.8945C11.2422 32.3123 11.1445 33.7746 11.1445 35.2773C11.1445 42.2179 13.236 48.3436 17.2607 52.7129C17.786 53.2833 18.3444 53.8219 18.9316 54.3281C18.4945 55.03 17.7124 55.4843 16.8926 55.4844C16.2515 55.4844 15.6499 55.6487 15.124 55.9336C14.9069 55.716 14.694 55.4942 14.4863 55.2686C9.69032 50.0619 7.37305 42.9532 7.37305 35.2773V10.8486C7.37308 9.80866 7.78611 8.81155 8.52148 8.07617C9.25686 7.34079 10.254 6.92777 11.2939 6.92773ZM11.1445 20.1221V25.8115L11.4004 25.5547L26 10.9551L26.2568 10.6992H20.5674L11.1445 20.1221ZM11.1445 16.125L16.5703 10.6992H11.1445V16.125Z" fill="#FFC700" stroke="black" stroke-width="0.3"/>
<mask id="path-2-inside-1_22_2980" fill="white">
<path d="M48.9768 30.6542C49.8053 29.5488 50.8903 28.645 52.1423 28.0302C51.9673 27.7743 51.7748 27.5308 51.5662 27.3014C50.3977 26.0189 48.6348 25.0988 46.2001 25.0988C43.7898 25.0988 42.0329 25.9762 40.8583 27.2566C39.7428 28.4699 39.2929 29.8888 39.1137 30.8191C39.0559 31.0843 39.0516 31.3583 39.1012 31.6251C39.1508 31.8919 39.2532 32.1461 39.4025 32.3728C39.5518 32.5994 39.7448 32.7939 39.9704 32.9449C40.1959 33.0958 40.4493 33.2001 40.7158 33.2517C40.9822 33.3033 41.2563 33.3011 41.5218 33.2452C41.7874 33.1893 42.0391 33.0809 42.2621 32.9263C42.4852 32.7718 42.6751 32.5742 42.8207 32.3451C42.9663 32.1161 43.0646 31.8603 43.1098 31.5927C43.2076 31.0919 43.4315 30.4731 43.857 30.011C44.2234 29.6119 44.8707 29.1702 46.2001 29.1702C47.507 29.1702 48.1727 29.6221 48.5554 30.0435C48.7304 30.2328 48.8689 30.4446 48.9768 30.6542ZM23.4998 30.011C23.0723 30.4731 22.8484 31.0899 22.7527 31.5947C22.6496 32.1249 22.3401 32.5924 21.8922 32.8944C21.4444 33.1964 20.895 33.3081 20.3648 33.205C19.8346 33.1019 19.3671 32.7923 19.0651 32.3445C18.7632 31.8967 18.6514 31.3473 18.7546 30.8171C18.9357 29.8888 19.3856 28.4699 20.5012 27.2566C21.6758 25.9762 23.4326 25.0988 25.8429 25.0988C28.2756 25.0988 30.0406 26.0189 31.2091 27.3014C32.3165 28.5167 32.7766 29.9316 32.9394 30.8578C33.0317 31.3899 32.9089 31.9368 32.598 32.3784C32.287 32.8199 31.8134 33.1198 31.2813 33.2121C30.7492 33.3044 30.2023 33.1816 29.7608 32.8707C29.3193 32.5597 29.0193 32.0861 28.927 31.554C28.8252 30.9939 28.5733 30.4718 28.1982 30.0435C27.8176 29.6221 27.1498 29.1702 25.8429 29.1702C24.5136 29.1702 23.8642 29.6119 23.4998 30.0089M55.3608 10.8488C55.9007 10.8488 56.4185 10.6343 56.8002 10.2525C57.182 9.87075 57.3965 9.35296 57.3965 8.81306C57.3965 8.27315 57.182 7.75536 56.8002 7.37359C56.4185 6.99182 55.9007 6.77734 55.3608 6.77734C54.8209 6.77734 54.3031 6.99182 53.9213 7.37359C53.5395 7.75536 53.3251 8.27315 53.3251 8.81306C53.3251 9.35296 53.5395 9.87075 53.9213 10.2525C54.3031 10.6343 54.8209 10.8488 55.3608 10.8488ZM58.9233 12.8845C59.3282 12.8845 59.7165 13.0453 60.0029 13.3317C60.2892 13.618 60.4501 14.0063 60.4501 14.4113C60.4501 18.8858 56.7206 22.0452 52.8161 22.0452C52.4112 22.0452 52.0229 21.8843 51.7365 21.598C51.4502 21.3117 51.2893 20.9233 51.2893 20.5184C51.2893 20.1135 51.4502 19.7251 51.7365 19.4388C52.0229 19.1525 52.4112 18.9916 52.8161 18.9916C55.1755 18.9916 57.3965 17.0618 57.3965 14.4113C57.3965 14.0063 57.5573 13.618 57.8437 13.3317C58.13 13.0453 58.5183 12.8845 58.9233 12.8845ZM22.2804 51.5631C22.6853 51.5631 23.0737 51.7239 23.36 52.0102C23.6463 52.2966 23.8072 52.6849 23.8072 53.0898C23.8072 57.5643 20.0778 60.7238 16.1733 60.7238C15.7683 60.7238 15.38 60.5629 15.0937 60.2766C14.8073 59.9903 14.6465 59.6019 14.6465 59.197C14.6465 58.7921 14.8073 58.4037 15.0937 58.1174C15.38 57.8311 15.7683 57.6702 16.1733 57.6702C18.5327 57.6702 20.7536 55.7403 20.7536 53.0898C20.7536 52.6849 20.9145 52.2966 21.2008 52.0102C21.4871 51.7239 21.8755 51.5631 22.2804 51.5631ZM57.3965 61.7416C57.9364 61.7416 58.4542 61.5271 58.836 61.1454C59.2177 60.7636 59.4322 60.2458 59.4322 59.7059C59.4322 59.166 59.2177 58.6482 58.836 58.2664C58.4542 57.8847 57.9364 57.6702 57.3965 57.6702C56.8566 57.6702 56.3388 57.8847 55.957 58.2664C55.5752 58.6482 55.3608 59.166 55.3608 59.7059C55.3608 60.2458 55.5752 60.7636 55.957 61.1454C56.3388 61.5271 56.8566 61.7416 57.3965 61.7416ZM22.7893 43.4202C22.7893 43.9601 22.5749 44.4779 22.1931 44.8597C21.8113 45.2414 21.2935 45.4559 20.7536 45.4559C20.2137 45.4559 19.6959 45.2414 19.3142 44.8597C18.9324 44.4779 18.7179 43.9601 18.7179 43.4202C18.7179 42.8803 18.9324 42.3625 19.3142 41.9807C19.6959 41.599 20.2137 41.3845 20.7536 41.3845C21.2935 41.3845 21.8113 41.599 22.1931 41.9807C22.5749 42.3625 22.7893 42.8803 22.7893 43.4202ZM56.0142 29.1702C55.1264 29.1702 54.2473 29.3451 53.4271 29.6848C52.6068 30.0246 51.8615 30.5226 51.2338 31.1503C50.606 31.7781 50.108 32.5234 49.7682 33.3436C49.4285 34.1639 49.2536 35.043 49.2536 35.9308V36.8041C49.2536 37.4056 49.3721 38.0012 49.6023 38.557C49.8325 39.1127 50.1699 39.6176 50.5952 40.0429C51.0205 40.4683 51.5254 40.8056 52.0812 41.0358C52.6369 41.266 53.2325 41.3845 53.834 41.3845C54.7788 41.3845 55.685 41.0091 56.3531 40.341C57.0211 39.673 57.3965 38.7668 57.3965 37.822V36.8041C57.3965 36.3992 57.2356 36.0109 56.9493 35.7245C56.663 35.4382 56.2746 35.2773 55.8697 35.2773C55.4648 35.2773 55.0764 35.4382 54.7901 35.7245C54.5038 36.0109 54.3429 36.3992 54.3429 36.8041V37.822C54.3429 37.957 54.2893 38.0864 54.1939 38.1819C54.0984 38.2773 53.969 38.3309 53.834 38.3309C53.4291 38.3309 53.0407 38.1701 52.7544 37.8837C52.4681 37.5974 52.3072 37.2091 52.3072 36.8041V35.9308C52.3072 33.8829 53.9683 32.2238 56.0142 32.2238H56.3786C57.4584 32.2238 58.494 32.6527 59.2576 33.4163C60.0211 34.1798 60.4501 35.2154 60.4501 36.2952V37.0301C60.4501 38.7249 59.7768 40.3502 58.5784 41.5486C57.3801 42.747 55.7547 43.4202 54.06 43.4202H43.4071C43.5783 42.6687 43.5781 41.8884 43.4063 41.137C43.2346 40.3857 42.8957 39.6827 42.415 39.0803C41.9342 38.4779 41.3239 37.9915 40.6294 37.6574C39.9349 37.3232 39.174 37.1499 38.4033 37.1502C37.8634 37.1502 37.3456 37.3647 36.9638 37.7464C36.582 38.1282 36.3676 38.646 36.3676 39.1859C36.3676 39.7258 36.582 40.2436 36.9638 40.6254C37.3456 41.0072 37.8634 41.2216 38.4033 41.2216C38.5423 41.2216 38.6799 41.249 38.8084 41.3022C38.9368 41.3554 39.0535 41.4334 39.1518 41.5317C39.2501 41.63 39.3281 41.7467 39.3813 41.8751C39.4345 42.0035 39.4618 42.1412 39.4618 42.2802C39.4618 42.4192 39.4345 42.5569 39.3813 42.6853C39.3281 42.8137 39.2501 42.9304 39.1518 43.0287C39.0535 43.127 38.9368 43.205 38.8084 43.2582C38.6799 43.3114 38.5423 43.3388 38.4033 43.3388C37.8634 43.3388 37.3456 43.5532 36.9638 43.935C36.582 44.3168 36.3676 44.8346 36.3676 45.3745C36.3676 45.9144 36.582 46.4322 36.9638 46.814C37.3456 47.1957 37.8634 47.4102 38.4033 47.4102C38.684 47.4102 38.9533 47.5217 39.1518 47.7202C39.3503 47.9188 39.4618 48.188 39.4618 48.4688C39.4618 48.7495 39.3503 49.0188 39.1518 49.2173C38.9533 49.4158 38.684 49.5273 38.4033 49.5273C37.8634 49.5273 37.3456 49.7418 36.9638 50.1236C36.582 50.5054 36.3676 51.0232 36.3676 51.5631C36.3676 52.103 36.582 52.6208 36.9638 53.0025C37.3456 53.3843 37.8634 53.5988 38.4033 53.5988C39.2499 53.5989 40.0834 53.3895 40.8294 52.9892C41.5754 52.589 42.2108 52.0103 42.6788 51.3048C43.1468 50.5993 43.433 49.789 43.5118 48.946C43.5905 48.1031 43.4594 47.2537 43.1302 46.4738H54.062C56.5663 46.4732 58.9678 45.478 60.7384 43.7071C62.509 41.9361 63.5036 39.5344 63.5036 37.0301V36.2952C63.5036 34.4055 62.753 32.5933 61.4168 31.2571C60.0806 29.9209 58.2683 29.1702 56.3786 29.1702H56.0142Z"/>
</mask>
<path d="M48.9768 30.6542C49.8053 29.5488 50.8903 28.645 52.1423 28.0302C51.9673 27.7743 51.7748 27.5308 51.5662 27.3014C50.3977 26.0189 48.6348 25.0988 46.2001 25.0988C43.7898 25.0988 42.0329 25.9762 40.8583 27.2566C39.7428 28.4699 39.2929 29.8888 39.1137 30.8191C39.0559 31.0843 39.0516 31.3583 39.1012 31.6251C39.1508 31.8919 39.2532 32.1461 39.4025 32.3728C39.5518 32.5994 39.7448 32.7939 39.9704 32.9449C40.1959 33.0958 40.4493 33.2001 40.7158 33.2517C40.9822 33.3033 41.2563 33.3011 41.5218 33.2452C41.7874 33.1893 42.0391 33.0809 42.2621 32.9263C42.4852 32.7718 42.6751 32.5742 42.8207 32.3451C42.9663 32.1161 43.0646 31.8603 43.1098 31.5927C43.2076 31.0919 43.4315 30.4731 43.857 30.011C44.2234 29.6119 44.8707 29.1702 46.2001 29.1702C47.507 29.1702 48.1727 29.6221 48.5554 30.0435C48.7304 30.2328 48.8689 30.4446 48.9768 30.6542ZM23.4998 30.011C23.0723 30.4731 22.8484 31.0899 22.7527 31.5947C22.6496 32.1249 22.3401 32.5924 21.8922 32.8944C21.4444 33.1964 20.895 33.3081 20.3648 33.205C19.8346 33.1019 19.3671 32.7923 19.0651 32.3445C18.7632 31.8967 18.6514 31.3473 18.7546 30.8171C18.9357 29.8888 19.3856 28.4699 20.5012 27.2566C21.6758 25.9762 23.4326 25.0988 25.8429 25.0988C28.2756 25.0988 30.0406 26.0189 31.2091 27.3014C32.3165 28.5167 32.7766 29.9316 32.9394 30.8578C33.0317 31.3899 32.9089 31.9368 32.598 32.3784C32.287 32.8199 31.8134 33.1198 31.2813 33.2121C30.7492 33.3044 30.2023 33.1816 29.7608 32.8707C29.3193 32.5597 29.0193 32.0861 28.927 31.554C28.8252 30.9939 28.5733 30.4718 28.1982 30.0435C27.8176 29.6221 27.1498 29.1702 25.8429 29.1702C24.5136 29.1702 23.8642 29.6119 23.4998 30.0089M55.3608 10.8488C55.9007 10.8488 56.4185 10.6343 56.8002 10.2525C57.182 9.87075 57.3965 9.35296 57.3965 8.81306C57.3965 8.27315 57.182 7.75536 56.8002 7.37359C56.4185 6.99182 55.9007 6.77734 55.3608 6.77734C54.8209 6.77734 54.3031 6.99182 53.9213 7.37359C53.5395 7.75536 53.3251 8.27315 53.3251 8.81306C53.3251 9.35296 53.5395 9.87075 53.9213 10.2525C54.3031 10.6343 54.8209 10.8488 55.3608 10.8488ZM58.9233 12.8845C59.3282 12.8845 59.7165 13.0453 60.0029 13.3317C60.2892 13.618 60.4501 14.0063 60.4501 14.4113C60.4501 18.8858 56.7206 22.0452 52.8161 22.0452C52.4112 22.0452 52.0229 21.8843 51.7365 21.598C51.4502 21.3117 51.2893 20.9233 51.2893 20.5184C51.2893 20.1135 51.4502 19.7251 51.7365 19.4388C52.0229 19.1525 52.4112 18.9916 52.8161 18.9916C55.1755 18.9916 57.3965 17.0618 57.3965 14.4113C57.3965 14.0063 57.5573 13.618 57.8437 13.3317C58.13 13.0453 58.5183 12.8845 58.9233 12.8845ZM22.2804 51.5631C22.6853 51.5631 23.0737 51.7239 23.36 52.0102C23.6463 52.2966 23.8072 52.6849 23.8072 53.0898C23.8072 57.5643 20.0778 60.7238 16.1733 60.7238C15.7683 60.7238 15.38 60.5629 15.0937 60.2766C14.8073 59.9903 14.6465 59.6019 14.6465 59.197C14.6465 58.7921 14.8073 58.4037 15.0937 58.1174C15.38 57.8311 15.7683 57.6702 16.1733 57.6702C18.5327 57.6702 20.7536 55.7403 20.7536 53.0898C20.7536 52.6849 20.9145 52.2966 21.2008 52.0102C21.4871 51.7239 21.8755 51.5631 22.2804 51.5631ZM57.3965 61.7416C57.9364 61.7416 58.4542 61.5271 58.836 61.1454C59.2177 60.7636 59.4322 60.2458 59.4322 59.7059C59.4322 59.166 59.2177 58.6482 58.836 58.2664C58.4542 57.8847 57.9364 57.6702 57.3965 57.6702C56.8566 57.6702 56.3388 57.8847 55.957 58.2664C55.5752 58.6482 55.3608 59.166 55.3608 59.7059C55.3608 60.2458 55.5752 60.7636 55.957 61.1454C56.3388 61.5271 56.8566 61.7416 57.3965 61.7416ZM22.7893 43.4202C22.7893 43.9601 22.5749 44.4779 22.1931 44.8597C21.8113 45.2414 21.2935 45.4559 20.7536 45.4559C20.2137 45.4559 19.6959 45.2414 19.3142 44.8597C18.9324 44.4779 18.7179 43.9601 18.7179 43.4202C18.7179 42.8803 18.9324 42.3625 19.3142 41.9807C19.6959 41.599 20.2137 41.3845 20.7536 41.3845C21.2935 41.3845 21.8113 41.599 22.1931 41.9807C22.5749 42.3625 22.7893 42.8803 22.7893 43.4202ZM56.0142 29.1702C55.1264 29.1702 54.2473 29.3451 53.4271 29.6848C52.6068 30.0246 51.8615 30.5226 51.2338 31.1503C50.606 31.7781 50.108 32.5234 49.7682 33.3436C49.4285 34.1639 49.2536 35.043 49.2536 35.9308V36.8041C49.2536 37.4056 49.3721 38.0012 49.6023 38.557C49.8325 39.1127 50.1699 39.6176 50.5952 40.0429C51.0205 40.4683 51.5254 40.8056 52.0812 41.0358C52.6369 41.266 53.2325 41.3845 53.834 41.3845C54.7788 41.3845 55.685 41.0091 56.3531 40.341C57.0211 39.673 57.3965 38.7668 57.3965 37.822V36.8041C57.3965 36.3992 57.2356 36.0109 56.9493 35.7245C56.663 35.4382 56.2746 35.2773 55.8697 35.2773C55.4648 35.2773 55.0764 35.4382 54.7901 35.7245C54.5038 36.0109 54.3429 36.3992 54.3429 36.8041V37.822C54.3429 37.957 54.2893 38.0864 54.1939 38.1819C54.0984 38.2773 53.969 38.3309 53.834 38.3309C53.4291 38.3309 53.0407 38.1701 52.7544 37.8837C52.4681 37.5974 52.3072 37.2091 52.3072 36.8041V35.9308C52.3072 33.8829 53.9683 32.2238 56.0142 32.2238H56.3786C57.4584 32.2238 58.494 32.6527 59.2576 33.4163C60.0211 34.1798 60.4501 35.2154 60.4501 36.2952V37.0301C60.4501 38.7249 59.7768 40.3502 58.5784 41.5486C57.3801 42.747 55.7547 43.4202 54.06 43.4202H43.4071C43.5783 42.6687 43.5781 41.8884 43.4063 41.137C43.2346 40.3857 42.8957 39.6827 42.415 39.0803C41.9342 38.4779 41.3239 37.9915 40.6294 37.6574C39.9349 37.3232 39.174 37.1499 38.4033 37.1502C37.8634 37.1502 37.3456 37.3647 36.9638 37.7464C36.582 38.1282 36.3676 38.646 36.3676 39.1859C36.3676 39.7258 36.582 40.2436 36.9638 40.6254C37.3456 41.0072 37.8634 41.2216 38.4033 41.2216C38.5423 41.2216 38.6799 41.249 38.8084 41.3022C38.9368 41.3554 39.0535 41.4334 39.1518 41.5317C39.2501 41.63 39.3281 41.7467 39.3813 41.8751C39.4345 42.0035 39.4618 42.1412 39.4618 42.2802C39.4618 42.4192 39.4345 42.5569 39.3813 42.6853C39.3281 42.8137 39.2501 42.9304 39.1518 43.0287C39.0535 43.127 38.9368 43.205 38.8084 43.2582C38.6799 43.3114 38.5423 43.3388 38.4033 43.3388C37.8634 43.3388 37.3456 43.5532 36.9638 43.935C36.582 44.3168 36.3676 44.8346 36.3676 45.3745C36.3676 45.9144 36.582 46.4322 36.9638 46.814C37.3456 47.1957 37.8634 47.4102 38.4033 47.4102C38.684 47.4102 38.9533 47.5217 39.1518 47.7202C39.3503 47.9188 39.4618 48.188 39.4618 48.4688C39.4618 48.7495 39.3503 49.0188 39.1518 49.2173C38.9533 49.4158 38.684 49.5273 38.4033 49.5273C37.8634 49.5273 37.3456 49.7418 36.9638 50.1236C36.582 50.5054 36.3676 51.0232 36.3676 51.5631C36.3676 52.103 36.582 52.6208 36.9638 53.0025C37.3456 53.3843 37.8634 53.5988 38.4033 53.5988C39.2499 53.5989 40.0834 53.3895 40.8294 52.9892C41.5754 52.589 42.2108 52.0103 42.6788 51.3048C43.1468 50.5993 43.433 49.789 43.5118 48.946C43.5905 48.1031 43.4594 47.2537 43.1302 46.4738H54.062C56.5663 46.4732 58.9678 45.478 60.7384 43.7071C62.509 41.9361 63.5036 39.5344 63.5036 37.0301V36.2952C63.5036 34.4055 62.753 32.5933 61.4168 31.2571C60.0806 29.9209 58.2683 29.1702 56.3786 29.1702H56.0142Z" fill="#FFC700"/>
<path d="M48.9768 30.6542L48.71 30.7915L48.9293 31.2177L49.2168 30.8342L48.9768 30.6542ZM52.1423 28.0302L52.2745 28.2995L52.5855 28.1468L52.39 27.8609L52.1423 28.0302ZM51.5662 27.3014L51.7881 27.0995L51.788 27.0994L51.5662 27.3014ZM40.8583 27.2566L41.0792 27.4597L41.0794 27.4594L40.8583 27.2566ZM39.1137 30.8191L39.4069 30.8831L39.4083 30.8759L39.1137 30.8191ZM43.1098 31.5927L42.8153 31.5352L42.814 31.5427L43.1098 31.5927ZM43.857 30.011L44.0777 30.2142L44.0779 30.2139L43.857 30.011ZM48.5554 30.0435L48.3333 30.2452L48.3351 30.2472L48.5554 30.0435ZM22.7527 31.5947L23.0472 31.652L23.0475 31.6506L22.7527 31.5947ZM18.7546 30.8171L18.4601 30.7596L18.4601 30.7598L18.7546 30.8171ZM20.5012 27.2566L20.722 27.4597L20.7223 27.4594L20.5012 27.2566ZM31.2091 27.3014L30.9873 27.5035L30.9873 27.5035L31.2091 27.3014ZM32.9394 30.8578L33.235 30.8065L33.2349 30.8059L32.9394 30.8578ZM28.927 31.554L29.2226 31.5027L29.2222 31.5004L28.927 31.554ZM28.1982 30.0435L28.424 29.8459L28.4208 29.8424L28.1982 30.0435ZM55.3608 10.8488V11.1488V10.8488ZM55.3608 6.77734V6.47734V6.77734ZM58.9233 12.8845V12.5845V12.8845ZM52.8161 18.9916V18.6916V18.9916ZM14.6465 59.197H14.3465H14.6465ZM18.7179 43.4202H19.0179H18.7179ZM56.0142 29.1702V29.4702V29.1702ZM49.2536 35.9308H48.9536H49.2536ZM53.834 41.3845V41.6845V41.3845ZM56.3786 32.2238V32.5238V32.2238ZM43.4071 43.4202L43.1146 43.3535L43.031 43.7202H43.4071V43.4202ZM38.4033 37.1502L38.4033 37.4502H38.4034L38.4033 37.1502ZM38.4033 41.2216V41.5216H38.4033L38.4033 41.2216ZM38.4033 43.3388L38.4033 43.0388H38.4033V43.3388ZM38.4033 47.4102V47.1102V47.4102ZM38.4033 49.5273V49.8273V49.5273ZM38.4033 53.5988L38.4033 53.2988H38.4033V53.5988ZM43.1302 46.4738V46.1738H42.6779L42.8538 46.5904L43.1302 46.4738ZM54.062 46.4738V46.7738H54.062L54.062 46.4738ZM63.5036 37.0301H63.2036H63.5036ZM63.5036 36.2952H63.2036H63.5036ZM48.9768 30.6542L49.2168 30.8342C50.0172 29.7664 51.0653 28.8933 52.2745 28.2995L52.1423 28.0302L52.0101 27.7609C50.7154 28.3967 49.5935 29.3313 48.7367 30.4743L48.9768 30.6542ZM52.1423 28.0302L52.39 27.8609C52.2071 27.5935 52.0061 27.3391 51.7881 27.0995L51.5662 27.3014L51.3443 27.5033C51.5436 27.7224 51.7275 27.955 51.8947 28.1995L52.1423 28.0302ZM51.5662 27.3014L51.788 27.0994C50.5617 25.7535 48.7178 24.7988 46.2001 24.7988V25.0988V25.3988C48.5517 25.3988 50.2337 26.2843 51.3444 27.5035L51.5662 27.3014ZM46.2001 25.0988V24.7988C43.7102 24.7988 41.8717 25.7082 40.6373 27.0538L40.8583 27.2566L41.0794 27.4594C42.1942 26.2441 43.8693 25.3988 46.2001 25.3988V25.0988ZM40.8583 27.2566L40.6375 27.0536C39.471 28.3223 39.0044 29.8005 38.8191 30.7624L39.1137 30.8191L39.4083 30.8759C39.5814 29.9771 40.0146 28.6176 41.0792 27.4597L40.8583 27.2566ZM39.1137 30.8191L38.8206 30.7552C38.7543 31.0594 38.7494 31.3738 38.8063 31.6799L39.1012 31.6251L39.3962 31.5703C39.3539 31.3428 39.3575 31.1092 39.4068 30.8831L39.1137 30.8191ZM39.1012 31.6251L38.8063 31.6799C38.8632 31.9861 38.9807 32.2777 39.152 32.5378L39.4025 32.3728L39.6531 32.2078C39.5258 32.0145 39.4384 31.7978 39.3962 31.5703L39.1012 31.6251ZM39.4025 32.3728L39.152 32.5378C39.3232 32.7978 39.5447 33.021 39.8035 33.1942L39.9704 32.9449L40.1372 32.6956C39.9449 32.5669 39.7803 32.401 39.6531 32.2078L39.4025 32.3728ZM39.9704 32.9449L39.8035 33.1942C40.0623 33.3674 40.353 33.4871 40.6587 33.5463L40.7158 33.2517L40.7728 32.9572C40.5456 32.9132 40.3295 32.8243 40.1372 32.6956L39.9704 32.9449ZM40.7158 33.2517L40.6587 33.5463C40.9644 33.6054 41.2789 33.6029 41.5836 33.5388L41.5218 33.2452L41.46 32.9516C41.2336 32.9993 40.9999 33.0012 40.7728 32.9572L40.7158 33.2517ZM41.5218 33.2452L41.5836 33.5388C41.8883 33.4747 42.1771 33.3503 42.433 33.1729L42.2621 32.9263L42.0913 32.6798C41.9011 32.8116 41.6865 32.904 41.46 32.9516L41.5218 33.2452ZM42.2621 32.9263L42.433 33.1729C42.689 32.9956 42.9068 32.7688 43.0739 32.5061L42.8207 32.3451L42.5675 32.1842C42.4434 32.3795 42.2815 32.548 42.0913 32.6798L42.2621 32.9263ZM42.8207 32.3451L43.0739 32.5061C43.2409 32.2433 43.3537 31.9498 43.4056 31.6427L43.1098 31.5927L42.814 31.5427C42.7754 31.7708 42.6916 31.9889 42.5675 32.1842L42.8207 32.3451ZM43.1098 31.5927L43.4043 31.6502C43.496 31.1803 43.7033 30.6208 44.0777 30.2142L43.857 30.011L43.6362 29.8077C43.1597 30.3253 42.9191 31.0036 42.8154 31.5352L43.1098 31.5927ZM43.857 30.011L44.0779 30.2139C44.3849 29.8795 44.9508 29.4702 46.2001 29.4702V29.1702V28.8702C44.7906 28.8702 44.0618 29.3444 43.636 29.808L43.857 30.011ZM46.2001 29.1702V29.4702C47.4239 29.4702 48.0084 29.8875 48.3333 30.2452L48.5554 30.0435L48.7775 29.8418C48.3369 29.3568 47.5901 28.8702 46.2001 28.8702V29.1702ZM48.5554 30.0435L48.3351 30.2472C48.4883 30.4129 48.612 30.601 48.71 30.7915L48.9768 30.6542L49.2435 30.517C49.1258 30.2881 48.9726 30.0528 48.7756 29.8398L48.5554 30.0435ZM23.4998 30.011L23.2796 29.8072C22.8007 30.3249 22.5598 31.0016 22.4579 31.5389L22.7527 31.5947L23.0475 31.6506C23.137 31.1782 23.344 30.6212 23.72 30.2147L23.4998 30.011ZM22.7527 31.5947L22.4582 31.5375C22.3703 31.9895 22.1064 32.3882 21.7245 32.6457L21.8922 32.8944L22.06 33.1431C22.5738 32.7967 22.9289 32.2603 23.0472 31.652L22.7527 31.5947ZM21.8922 32.8944L21.7245 32.6457C21.3427 32.9032 20.8742 32.9984 20.4221 32.9105L20.3648 33.205L20.3075 33.4995C20.9158 33.6178 21.5462 33.4896 22.06 33.1431L21.8922 32.8944ZM20.3648 33.205L20.4221 32.9105C19.97 32.8226 19.5714 32.5587 19.3139 32.1768L19.0651 32.3445L18.8164 32.5123C19.1629 33.026 19.6992 33.3812 20.3075 33.4995L20.3648 33.205ZM19.0651 32.3445L19.3139 32.1768C19.0564 31.795 18.9611 31.3265 19.049 30.8744L18.7546 30.8171L18.4601 30.7598C18.3418 31.3681 18.4699 31.9985 18.8164 32.5123L19.0651 32.3445ZM18.7546 30.8171L19.049 30.8746C19.2241 29.9772 19.6574 28.6176 20.722 27.4597L20.5012 27.2566L20.2804 27.0536C19.1139 28.3223 18.6473 29.8004 18.4601 30.7596L18.7546 30.8171ZM20.5012 27.2566L20.7223 27.4594C21.8371 26.2441 23.5122 25.3988 25.8429 25.3988V25.0988V24.7988C23.3531 24.7988 21.5145 25.7082 20.2801 27.0538L20.5012 27.2566ZM25.8429 25.0988V25.3988C28.1926 25.3988 29.8766 26.2844 30.9873 27.5035L31.2091 27.3014L31.4308 27.0994C30.2045 25.7534 28.3586 24.7988 25.8429 24.7988V25.0988ZM31.2091 27.3014L30.9873 27.5035C32.0456 28.6649 32.4877 30.0213 32.6439 30.9098L32.9394 30.8578L33.2349 30.8059C33.0654 29.8418 32.5873 28.3686 31.4308 27.0994L31.2091 27.3014ZM32.9394 30.8578L32.6438 30.9091C32.7226 31.3628 32.6178 31.8292 32.3527 32.2056L32.598 32.3784L32.8432 32.5511C33.2 32.0445 33.3409 31.417 33.235 30.8065L32.9394 30.8578ZM32.598 32.3784L32.3527 32.2056C32.0875 32.5821 31.6837 32.8378 31.23 32.9165L31.2813 33.2121L31.3326 33.5077C31.9431 33.4018 32.4865 33.0577 32.8432 32.5511L32.598 32.3784ZM31.2813 33.2121L31.23 32.9165C30.7764 32.9952 30.31 32.8905 29.9335 32.6254L29.7608 32.8707L29.588 33.1159C30.0946 33.4727 30.7221 33.6136 31.3326 33.5077L31.2813 33.2121ZM29.7608 32.8707L29.9335 32.6254C29.557 32.3602 29.3013 31.9564 29.2226 31.5027L28.927 31.554L28.6314 31.6053C28.7374 32.2158 29.0815 32.7592 29.588 33.1159L29.7608 32.8707ZM28.927 31.554L29.2222 31.5004C29.1106 30.8868 28.8348 30.315 28.4239 29.8459L28.1982 30.0435L27.9725 30.2412C28.3119 30.6287 28.5397 31.1009 28.6319 31.6077L28.927 31.554ZM28.1982 30.0435L28.4208 29.8424C27.9819 29.3565 27.2325 28.8702 25.8429 28.8702V29.1702V29.4702C27.0672 29.4702 27.6533 29.8878 27.9756 30.2446L28.1982 30.0435ZM25.8429 29.1702V28.8702C24.4339 28.8702 23.7029 29.3441 23.2788 29.806L23.4998 30.0089L23.7208 30.2118C24.0255 29.8798 24.5933 29.4702 25.8429 29.4702V29.1702ZM55.3608 10.8488V11.1488C55.9802 11.1488 56.5743 10.9027 57.0124 10.4647L56.8002 10.2525L56.5881 10.0404C56.2626 10.3659 55.8211 10.5488 55.3608 10.5488V10.8488ZM56.8002 10.2525L57.0124 10.4647C57.4504 10.0266 57.6965 9.43253 57.6965 8.81306H57.3965H57.0965C57.0965 9.2734 56.9136 9.71488 56.5881 10.0404L56.8002 10.2525ZM57.3965 8.81306H57.6965C57.6965 8.19359 57.4504 7.59949 57.0124 7.16146L56.8002 7.37359L56.5881 7.58572C56.9136 7.91123 57.0965 8.35272 57.0965 8.81306H57.3965ZM56.8002 7.37359L57.0124 7.16146C56.5743 6.72343 55.9802 6.47734 55.3608 6.47734V6.77734V7.07734C55.8211 7.07734 56.2626 7.26021 56.5881 7.58572L56.8002 7.37359ZM55.3608 6.77734V6.47734C54.7413 6.47734 54.1472 6.72343 53.7092 7.16146L53.9213 7.37359L54.1334 7.58572C54.4589 7.26021 54.9004 7.07734 55.3608 7.07734V6.77734ZM53.9213 7.37359L53.7092 7.16146C53.2711 7.59949 53.0251 8.19359 53.0251 8.81306H53.3251H53.6251C53.6251 8.35272 53.8079 7.91123 54.1334 7.58572L53.9213 7.37359ZM53.3251 8.81306H53.0251C53.0251 9.43253 53.2711 10.0266 53.7092 10.4647L53.9213 10.2525L54.1334 10.0404C53.8079 9.71488 53.6251 9.2734 53.6251 8.81306H53.3251ZM53.9213 10.2525L53.7092 10.4647C54.1472 10.9027 54.7413 11.1488 55.3608 11.1488V10.8488V10.5488C54.9004 10.5488 54.4589 10.3659 54.1334 10.0404L53.9213 10.2525ZM58.9233 12.8845V13.1845C59.2486 13.1845 59.5607 13.3137 59.7907 13.5438L60.0029 13.3317L60.215 13.1195C59.8724 12.777 59.4078 12.5845 58.9233 12.5845V12.8845ZM60.0029 13.3317L59.7907 13.5438C60.0208 13.7739 60.1501 14.0859 60.1501 14.4113H60.4501H60.7501C60.7501 13.9268 60.5576 13.4621 60.215 13.1195L60.0029 13.3317ZM60.4501 14.4113H60.1501C60.1501 18.7057 56.5697 21.7452 52.8161 21.7452V22.0452V22.3452C56.8716 22.3452 60.7501 19.0658 60.7501 14.4113H60.4501ZM52.8161 22.0452V21.7452C52.4908 21.7452 52.1787 21.6159 51.9487 21.3859L51.7365 21.598L51.5244 21.8101C51.867 22.1527 52.3316 22.3452 52.8161 22.3452V22.0452ZM51.7365 21.598L51.9487 21.3859C51.7186 21.1558 51.5893 20.8438 51.5893 20.5184H51.2893H50.9893C50.9893 21.0029 51.1818 21.4676 51.5244 21.8101L51.7365 21.598ZM51.2893 20.5184H51.5893C51.5893 20.1931 51.7186 19.881 51.9487 19.6509L51.7365 19.4388L51.5244 19.2267C51.1818 19.5693 50.9893 20.0339 50.9893 20.5184H51.2893ZM51.7365 19.4388L51.9487 19.6509C52.1787 19.4209 52.4908 19.2916 52.8161 19.2916V18.9916V18.6916C52.3316 18.6916 51.867 18.8841 51.5244 19.2267L51.7365 19.4388ZM52.8161 18.9916V19.2916C55.3287 19.2916 57.6965 17.2397 57.6965 14.4113H57.3965H57.0965C57.0965 16.8839 55.0223 18.6916 52.8161 18.6916V18.9916ZM57.3965 14.4113H57.6965C57.6965 14.0859 57.8257 13.7739 58.0558 13.5438L57.8437 13.3317L57.6315 13.1195C57.2889 13.4621 57.0965 13.9268 57.0965 14.4113H57.3965ZM57.8437 13.3317L58.0558 13.5438C58.2859 13.3137 58.5979 13.1845 58.9233 13.1845V12.8845V12.5845C58.4388 12.5845 57.9741 12.777 57.6315 13.1195L57.8437 13.3317ZM22.2804 51.5631V51.8631C22.6058 51.8631 22.9178 51.9923 23.1479 52.2224L23.36 52.0102L23.5721 51.7981C23.2296 51.4555 22.7649 51.2631 22.2804 51.2631V51.5631ZM23.36 52.0102L23.1479 52.2224C23.3779 52.4524 23.5072 52.7645 23.5072 53.0898H23.8072H24.1072C24.1072 52.6053 23.9147 52.1407 23.5721 51.7981L23.36 52.0102ZM23.8072 53.0898H23.5072C23.5072 57.3843 19.9268 60.4238 16.1733 60.4238V60.7238V61.0238C20.2287 61.0238 24.1072 57.7444 24.1072 53.0898H23.8072ZM16.1733 60.7238V60.4238C15.8479 60.4238 15.5359 60.2945 15.3058 60.0645L15.0937 60.2766L14.8815 60.4887C15.2241 60.8313 15.6888 61.0238 16.1733 61.0238V60.7238ZM15.0937 60.2766L15.3058 60.0645C15.0757 59.8344 14.9465 59.5223 14.9465 59.197H14.6465H14.3465C14.3465 59.6815 14.5389 60.1461 14.8815 60.4887L15.0937 60.2766ZM14.6465 59.197H14.9465C14.9465 58.8716 15.0757 58.5596 15.3058 58.3295L15.0937 58.1174L14.8815 57.9053C14.5389 58.2478 14.3465 58.7125 14.3465 59.197H14.6465ZM15.0937 58.1174L15.3058 58.3295C15.5359 58.0994 15.8479 57.9702 16.1733 57.9702V57.6702V57.3702C15.6888 57.3702 15.2241 57.5627 14.8815 57.9053L15.0937 58.1174ZM16.1733 57.6702V57.9702C18.6858 57.9702 21.0536 55.9183 21.0536 53.0898H20.7536H20.4536C20.4536 55.5624 18.3795 57.3702 16.1733 57.3702V57.6702ZM20.7536 53.0898H21.0536C21.0536 52.7645 21.1829 52.4524 21.4129 52.2224L21.2008 52.0102L20.9887 51.7981C20.6461 52.1407 20.4536 52.6053 20.4536 53.0898H20.7536ZM21.2008 52.0102L21.4129 52.2224C21.643 51.9923 21.955 51.8631 22.2804 51.8631V51.5631V51.2631C21.7959 51.2631 21.3313 51.4555 20.9887 51.7981L21.2008 52.0102ZM57.3965 61.7416V62.0416C58.016 62.0416 58.6101 61.7955 59.0481 61.3575L58.836 61.1454L58.6238 60.9332C58.2983 61.2588 57.8568 61.4416 57.3965 61.4416V61.7416ZM58.836 61.1454L59.0481 61.3575C59.4861 60.9195 59.7322 60.3254 59.7322 59.7059H59.4322H59.1322C59.1322 60.1663 58.9493 60.6077 58.6238 60.9332L58.836 61.1454ZM59.4322 59.7059H59.7322C59.7322 59.0864 59.4861 58.4923 59.0481 58.0543L58.836 58.2664L58.6238 58.4786C58.9493 58.8041 59.1322 59.2456 59.1322 59.7059H59.4322ZM58.836 58.2664L59.0481 58.0543C58.6101 57.6163 58.016 57.3702 57.3965 57.3702V57.6702V57.9702C57.8568 57.9702 58.2983 58.1531 58.6238 58.4786L58.836 58.2664ZM57.3965 57.6702V57.3702C56.777 57.3702 56.1829 57.6163 55.7449 58.0543L55.957 58.2664L56.1692 58.4786C56.4947 58.1531 56.9361 57.9702 57.3965 57.9702V57.6702ZM55.957 58.2664L55.7449 58.0543C55.3069 58.4923 55.0608 59.0864 55.0608 59.7059H55.3608H55.6608C55.6608 59.2456 55.8436 58.8041 56.1692 58.4786L55.957 58.2664ZM55.3608 59.7059H55.0608C55.0608 60.3254 55.3069 60.9195 55.7449 61.3575L55.957 61.1454L56.1692 60.9332C55.8436 60.6077 55.6608 60.1663 55.6608 59.7059H55.3608ZM55.957 61.1454L55.7449 61.3575C56.1829 61.7955 56.777 62.0416 57.3965 62.0416V61.7416V61.4416C56.9361 61.4416 56.4947 61.2588 56.1692 60.9332L55.957 61.1454ZM22.7893 43.4202H22.4893C22.4893 43.8805 22.3065 44.322 21.981 44.6475L22.1931 44.8597L22.4052 45.0718C22.8433 44.6338 23.0893 44.0397 23.0893 43.4202H22.7893ZM22.1931 44.8597L21.981 44.6475C21.6555 44.973 21.214 45.1559 20.7536 45.1559V45.4559V45.7559C21.3731 45.7559 21.9672 45.5098 22.4052 45.0718L22.1931 44.8597ZM20.7536 45.4559V45.1559C20.2933 45.1559 19.8518 44.973 19.5263 44.6475L19.3142 44.8597L19.102 45.0718C19.5401 45.5098 20.1342 45.7559 20.7536 45.7559V45.4559ZM19.3142 44.8597L19.5263 44.6475C19.2008 44.322 19.0179 43.8805 19.0179 43.4202H18.7179H18.4179C18.4179 44.0397 18.664 44.6338 19.102 45.0718L19.3142 44.8597ZM18.7179 43.4202H19.0179C19.0179 42.9599 19.2008 42.5184 19.5263 42.1929L19.3142 41.9807L19.102 41.7686C18.664 42.2066 18.4179 42.8007 18.4179 43.4202H18.7179ZM19.3142 41.9807L19.5263 42.1929C19.8518 41.8674 20.2933 41.6845 20.7536 41.6845V41.3845V41.0845C20.1342 41.0845 19.5401 41.3306 19.102 41.7686L19.3142 41.9807ZM20.7536 41.3845V41.6845C21.214 41.6845 21.6555 41.8674 21.981 42.1929L22.1931 41.9807L22.4052 41.7686C21.9672 41.3306 21.3731 41.0845 20.7536 41.0845V41.3845ZM22.1931 41.9807L21.981 42.1929C22.3065 42.5184 22.4893 42.9599 22.4893 43.4202H22.7893H23.0893C23.0893 42.8007 22.8433 42.2066 22.4052 41.7686L22.1931 41.9807ZM56.0142 29.1702V28.8702C55.087 28.8702 54.1689 29.0528 53.3123 29.4077L53.4271 29.6848L53.5419 29.962C54.3257 29.6373 55.1658 29.4702 56.0142 29.4702V29.1702ZM53.4271 29.6848L53.3123 29.4077C52.4556 29.7625 51.6773 30.2826 51.0216 30.9382L51.2338 31.1503L51.4459 31.3625C52.0458 30.7625 52.758 30.2867 53.5419 29.962L53.4271 29.6848ZM51.2338 31.1503L51.0216 30.9382C50.366 31.5938 49.8459 32.3722 49.4911 33.2288L49.7682 33.3436L50.0454 33.4584C50.3701 32.6746 50.846 31.9624 51.4459 31.3625L51.2338 31.1503ZM49.7682 33.3436L49.4911 33.2288C49.1363 34.0855 48.9536 35.0036 48.9536 35.9308L49.2536 35.9308H49.5536C49.5536 35.0824 49.7207 34.2423 50.0454 33.4584L49.7682 33.3436ZM49.2536 35.9308H48.9536V36.8041H49.2536H49.5536V35.9308H49.2536ZM49.2536 36.8041H48.9536C48.9536 37.445 49.0799 38.0796 49.3251 38.6718L49.6023 38.557L49.8794 38.4422C49.6643 37.9228 49.5536 37.3662 49.5536 36.8041H49.2536ZM49.6023 38.557L49.3251 38.6718C49.5704 39.2639 49.9299 39.8019 50.3831 40.2551L50.5952 40.0429L50.8073 39.8308C50.4099 39.4333 50.0946 38.9615 49.8794 38.4422L49.6023 38.557ZM50.5952 40.0429L50.3831 40.2551C50.8362 40.7082 51.3742 41.0677 51.9664 41.313L52.0812 41.0358L52.196 40.7587C51.6766 40.5436 51.2048 40.2283 50.8073 39.8308L50.5952 40.0429ZM52.0812 41.0358L51.9664 41.313C52.5585 41.5583 53.1931 41.6845 53.834 41.6845V41.3845V41.0845C53.2719 41.0845 52.7153 40.9738 52.196 40.7587L52.0812 41.0358ZM53.834 41.3845V41.6845C54.8584 41.6845 55.8408 41.2775 56.5652 40.5532L56.3531 40.341L56.1409 40.1289C55.5291 40.7408 54.6993 41.0845 53.834 41.0845V41.3845ZM56.3531 40.341L56.5652 40.5532C57.2895 39.8288 57.6965 38.8464 57.6965 37.822H57.3965H57.0965C57.0965 38.6873 56.7528 39.5171 56.1409 40.1289L56.3531 40.341ZM57.3965 37.822H57.6965V36.8041H57.3965H57.0965V37.822H57.3965ZM57.3965 36.8041H57.6965C57.6965 36.3196 57.504 35.855 57.1614 35.5124L56.9493 35.7245L56.7372 35.9367C56.9672 36.1667 57.0965 36.4788 57.0965 36.8041H57.3965ZM56.9493 35.7245L57.1614 35.5124C56.8188 35.1698 56.3542 34.9773 55.8697 34.9773V35.2773V35.5773C56.1951 35.5773 56.5071 35.7066 56.7372 35.9367L56.9493 35.7245ZM55.8697 35.2773V34.9773C55.3852 34.9773 54.9206 35.1698 54.578 35.5124L54.7901 35.7245L55.0022 35.9367C55.2323 35.7066 55.5443 35.5773 55.8697 35.5773V35.2773ZM54.7901 35.7245L54.578 35.5124C54.2354 35.855 54.0429 36.3196 54.0429 36.8041H54.3429H54.6429C54.6429 36.4788 54.7722 36.1667 55.0022 35.9367L54.7901 35.7245ZM54.3429 36.8041H54.0429V37.822H54.3429H54.6429V36.8041H54.3429ZM54.3429 37.822H54.0429C54.0429 37.8774 54.0209 37.9305 53.9817 37.9697L54.1939 38.1819L54.406 38.394C54.5577 38.2423 54.6429 38.0365 54.6429 37.822H54.3429ZM54.1939 38.1819L53.9817 37.9697C53.9425 38.0089 53.8894 38.0309 53.834 38.0309V38.3309V38.6309C54.0485 38.6309 54.2543 38.5457 54.406 38.394L54.1939 38.1819ZM53.834 38.3309V38.0309C53.5086 38.0309 53.1966 37.9017 52.9665 37.6716L52.7544 37.8837L52.5423 38.0959C52.8848 38.4385 53.3495 38.6309 53.834 38.6309V38.3309ZM52.7544 37.8837L52.9665 37.6716C52.7365 37.4415 52.6072 37.1295 52.6072 36.8041H52.3072H52.0072C52.0072 37.2886 52.1997 37.7533 52.5423 38.0959L52.7544 37.8837ZM52.3072 36.8041H52.6072V35.9308H52.3072H52.0072V36.8041H52.3072ZM52.3072 35.9308H52.6072C52.6072 34.0487 54.1339 32.5238 56.0142 32.5238V32.2238V31.9238C53.8028 31.9238 52.0072 33.7171 52.0072 35.9308H52.3072ZM56.0142 32.2238V32.5238H56.3786V32.2238V31.9238H56.0142V32.2238ZM56.3786 32.2238V32.5238C57.3789 32.5238 58.3382 32.9211 59.0454 33.6284L59.2576 33.4163L59.4697 33.2041C58.6499 32.3843 57.538 31.9238 56.3786 31.9238V32.2238ZM59.2576 33.4163L59.0454 33.6284C59.7527 34.3357 60.1501 35.295 60.1501 36.2952H60.4501H60.7501C60.7501 35.1358 60.2895 34.0239 59.4697 33.2041L59.2576 33.4163ZM60.4501 36.2952H60.1501V37.0301H60.4501H60.7501V36.2952H60.4501ZM60.4501 37.0301H60.1501C60.1501 38.6453 59.5084 40.1943 58.3663 41.3364L58.5784 41.5486L58.7906 41.7607C60.0452 40.5061 60.7501 38.8044 60.7501 37.0301H60.4501ZM58.5784 41.5486L58.3663 41.3364C57.2242 42.4786 55.6751 43.1202 54.06 43.1202V43.4202V43.7202C55.8343 43.7202 57.5359 43.0154 58.7906 41.7607L58.5784 41.5486ZM54.06 43.4202V43.1202H43.4071V43.4202V43.7202H54.06V43.4202ZM43.4071 43.4202L43.6996 43.4869C43.8808 42.6915 43.8806 41.8654 43.6988 41.0702L43.4063 41.137L43.1139 41.2039C43.2756 41.9113 43.2758 42.646 43.1146 43.3535L43.4071 43.4202ZM43.4063 41.137L43.6988 41.0702C43.517 40.2749 43.1583 39.5308 42.6495 38.8932L42.415 39.0803L42.1805 39.2674C42.6331 39.8346 42.9522 40.4965 43.1139 41.2039L43.4063 41.137ZM42.415 39.0803L42.6495 38.8932C42.1406 38.2555 41.4946 37.7407 40.7595 37.387L40.6294 37.6574L40.4993 37.9277C41.1533 38.2423 41.7279 38.7002 42.1805 39.2674L42.415 39.0803ZM40.6294 37.6574L40.7595 37.387C40.0243 37.0334 39.2189 36.8499 38.4032 36.8502L38.4033 37.1502L38.4034 37.4502C39.129 37.4499 39.8454 37.6131 40.4993 37.9277L40.6294 37.6574ZM38.4033 37.1502V36.8502C37.7838 36.8502 37.1897 37.0963 36.7517 37.5343L36.9638 37.7464L37.1759 37.9586C37.5014 37.6331 37.9429 37.4502 38.4033 37.4502V37.1502ZM36.9638 37.7464L36.7517 37.5343C36.3136 37.9723 36.0676 38.5664 36.0676 39.1859H36.3676H36.6676C36.6676 38.7256 36.8504 38.2841 37.1759 37.9586L36.9638 37.7464ZM36.3676 39.1859H36.0676C36.0676 39.8054 36.3136 40.3995 36.7517 40.8375L36.9638 40.6254L37.1759 40.4132C36.8504 40.0877 36.6676 39.6463 36.6676 39.1859H36.3676ZM36.9638 40.6254L36.7517 40.8375C37.1897 41.2755 37.7838 41.5216 38.4033 41.5216V41.2216V40.9216C37.9429 40.9216 37.5014 40.7388 37.1759 40.4132L36.9638 40.6254ZM38.4033 41.2216L38.4033 41.5216C38.5029 41.5216 38.6015 41.5412 38.6936 41.5794L38.8084 41.3022L38.9232 41.025C38.7583 40.9568 38.5817 40.9216 38.4033 40.9216V41.2216ZM38.8084 41.3022L38.6936 41.5794C38.7856 41.6175 38.8692 41.6734 38.9397 41.7438L39.1518 41.5317L39.3639 41.3195C39.2378 41.1934 39.088 41.0933 38.9232 41.025L38.8084 41.3022ZM39.1518 41.5317L38.9397 41.7438C39.0101 41.8142 39.066 41.8979 39.1041 41.9899L39.3813 41.8751L39.6584 41.7603C39.5902 41.5955 39.4901 41.4457 39.3639 41.3195L39.1518 41.5317ZM39.3813 41.8751L39.1041 41.9899C39.1422 42.0819 39.1618 42.1806 39.1618 42.2802H39.4618H39.7618C39.7618 42.1018 39.7267 41.9251 39.6584 41.7603L39.3813 41.8751ZM39.4618 42.2802H39.1618C39.1618 42.3798 39.1422 42.4785 39.1041 42.5705L39.3813 42.6853L39.6584 42.8001C39.7267 42.6353 39.7618 42.4586 39.7618 42.2802H39.4618ZM39.3813 42.6853L39.1041 42.5705C39.066 42.6625 39.0101 42.7461 38.9397 42.8166L39.1518 43.0287L39.3639 43.2409C39.4901 43.1147 39.5902 42.9649 39.6584 42.8001L39.3813 42.6853ZM39.1518 43.0287L38.9397 42.8166C38.8692 42.887 38.7856 42.9429 38.6936 42.981L38.8084 43.2582L38.9232 43.5354C39.088 43.4671 39.2378 43.367 39.3639 43.2409L39.1518 43.0287ZM38.8084 43.2582L38.6936 42.981C38.6015 43.0191 38.5029 43.0388 38.4033 43.0388L38.4033 43.3388V43.6388C38.5817 43.6388 38.7583 43.6036 38.9232 43.5354L38.8084 43.2582ZM38.4033 43.3388V43.0388C37.7838 43.0388 37.1897 43.2849 36.7517 43.7229L36.9638 43.935L37.1759 44.1472C37.5014 43.8216 37.9429 43.6388 38.4033 43.6388V43.3388ZM36.9638 43.935L36.7517 43.7229C36.3136 44.1609 36.0676 44.755 36.0676 45.3745H36.3676H36.6676C36.6676 44.9141 36.8504 44.4727 37.1759 44.1472L36.9638 43.935ZM36.3676 45.3745H36.0676C36.0676 45.994 36.3136 46.5881 36.7517 47.0261L36.9638 46.814L37.1759 46.6018C36.8504 46.2763 36.6676 45.8348 36.6676 45.3745H36.3676ZM36.9638 46.814L36.7517 47.0261C37.1897 47.4641 37.7838 47.7102 38.4033 47.7102V47.4102V47.1102C37.9429 47.1102 37.5014 46.9273 37.1759 46.6018L36.9638 46.814ZM38.4033 47.4102V47.7102C38.6045 47.7102 38.7974 47.7901 38.9397 47.9324L39.1518 47.7202L39.3639 47.5081C39.1091 47.2533 38.7636 47.1102 38.4033 47.1102L38.4033 47.4102ZM39.1518 47.7202L38.9397 47.9324C39.0819 48.0746 39.1618 48.2676 39.1618 48.4688H39.4618H39.7618C39.7618 48.1085 39.6187 47.7629 39.3639 47.5081L39.1518 47.7202ZM39.4618 48.4688H39.1618C39.1618 48.67 39.0819 48.8629 38.9397 49.0052L39.1518 49.2173L39.3639 49.4294C39.6187 49.1746 39.7618 48.8291 39.7618 48.4688H39.4618ZM39.1518 49.2173L38.9397 49.0052C38.7974 49.1474 38.6045 49.2273 38.4033 49.2273V49.5273V49.8273C38.7636 49.8273 39.1091 49.6842 39.3639 49.4294L39.1518 49.2173ZM38.4033 49.5273L38.4033 49.2273C37.7838 49.2273 37.1897 49.4734 36.7517 49.9115L36.9638 50.1236L37.1759 50.3357C37.5014 50.0102 37.9429 49.8273 38.4033 49.8273V49.5273ZM36.9638 50.1236L36.7517 49.9115C36.3136 50.3495 36.0676 50.9436 36.0676 51.5631H36.3676H36.6676C36.6676 51.1027 36.8504 50.6612 37.1759 50.3357L36.9638 50.1236ZM36.3676 51.5631H36.0676C36.0676 52.1825 36.3136 52.7766 36.7517 53.2147L36.9638 53.0025L37.1759 52.7904C36.8504 52.4649 36.6676 52.0234 36.6676 51.5631H36.3676ZM36.9638 53.0025L36.7517 53.2147C37.1897 53.6527 37.7838 53.8988 38.4033 53.8988V53.5988V53.2988C37.9429 53.2988 37.5014 53.1159 37.1759 52.7904L36.9638 53.0025ZM38.4033 53.5988L38.4032 53.8988C39.2994 53.8989 40.1816 53.6772 40.9712 53.2536L40.8294 52.9892L40.6876 52.7249C39.9852 53.1017 39.2004 53.2989 38.4033 53.2988L38.4033 53.5988ZM40.8294 52.9892L40.9712 53.2536C41.7609 52.8299 42.4334 52.2174 42.9288 51.4706L42.6788 51.3048L42.4288 51.1389C41.9882 51.8032 41.3899 52.348 40.6876 52.7249L40.8294 52.9892ZM42.6788 51.3048L42.9288 51.4706C43.4242 50.7239 43.7271 49.8662 43.8105 48.9739L43.5118 48.946L43.2131 48.9181C43.1389 49.7118 42.8695 50.4747 42.4288 51.1389L42.6788 51.3048ZM43.5118 48.946L43.8105 48.9739C43.8938 48.0817 43.7551 47.1827 43.4066 46.3571L43.1302 46.4738L42.8538 46.5904C43.1638 47.3248 43.2872 48.1245 43.2131 48.9181L43.5118 48.946ZM43.1302 46.4738V46.7738H54.062V46.4738V46.1738H43.1302V46.4738ZM54.062 46.4738L54.062 46.7738C56.6459 46.7732 59.1237 45.7464 60.9505 43.9192L60.7384 43.7071L60.5262 43.495C58.8119 45.2097 56.4866 46.1732 54.0619 46.1738L54.062 46.4738ZM60.7384 43.7071L60.9505 43.9192C62.7774 42.0919 63.8036 39.6139 63.8036 37.0301H63.5036H63.2036C63.2036 39.4548 62.2406 41.7802 60.5262 43.495L60.7384 43.7071ZM63.5036 37.0301H63.8036V36.2952H63.5036H63.2036V37.0301H63.5036ZM63.5036 36.2952H63.8036C63.8036 34.326 63.0214 32.4374 61.6289 31.0449L61.4168 31.2571L61.2046 31.4692C62.4846 32.7491 63.2036 34.4851 63.2036 36.2952H63.5036ZM61.4168 31.2571L61.6289 31.0449C60.2364 29.6525 58.3479 28.8702 56.3786 28.8702V29.1702V29.4702C58.1887 29.4702 59.9247 30.1893 61.2046 31.4692L61.4168 31.2571ZM56.3786 29.1702V28.8702H56.0142V29.1702V29.4702H56.3786V29.1702Z" fill="black" mask="url(#path-2-inside-1_22_2980)"/>
<path d="M58.9248 13.0347C59.29 13.0347 59.6402 13.1798 59.8984 13.438C60.1564 13.6961 60.3016 14.0457 60.3018 14.4106C60.3018 18.7951 56.6464 21.895 52.8174 21.895C52.4525 21.8949 52.1028 21.7497 51.8447 21.4917C51.5865 21.2335 51.4414 20.8832 51.4414 20.5181C51.4414 20.153 51.5866 19.8026 51.8447 19.5444C52.1028 19.2866 52.4526 19.1412 52.8174 19.1411C55.2534 19.1411 57.5479 17.1501 57.5479 14.4106C57.548 14.0458 57.6933 13.6961 57.9512 13.438C58.2093 13.1798 58.5597 13.0347 58.9248 13.0347Z" fill="#00C2FF" stroke="black" stroke-width="0.3"/>
<path d="M22.2803 51.7129C22.6454 51.7129 22.9957 51.858 23.2539 52.1162C23.5119 52.3743 23.6571 52.724 23.6572 53.0889C23.6572 57.4733 20.0019 60.5732 16.1729 60.5732C15.808 60.5731 15.4583 60.4279 15.2002 60.1699C14.942 59.9117 14.7969 59.5614 14.7969 59.1963C14.7969 58.8312 14.942 58.4808 15.2002 58.2227C15.4583 57.9648 15.808 57.8194 16.1729 57.8193C18.6088 57.8193 20.9033 55.8283 20.9033 53.0889C20.9034 52.724 21.0488 52.3743 21.3066 52.1162C21.5648 51.858 21.9152 51.7129 22.2803 51.7129Z" fill="#00C2FF" stroke="black" stroke-width="0.3"/>
<path d="M20.749 41.5347C21.249 41.5348 21.7285 41.7329 22.082 42.0864C22.4357 42.4401 22.6348 42.9203 22.6348 43.4204C22.6347 43.9204 22.4356 44.3999 22.082 44.7534C21.7285 45.107 21.249 45.306 20.749 45.3062C20.2489 45.3062 19.7687 45.1071 19.415 44.7534C19.0615 44.3999 18.8634 43.9203 18.8633 43.4204C18.8633 42.9203 19.0614 42.4401 19.415 42.0864C19.7687 41.7328 20.2489 41.5347 20.749 41.5347Z" fill="#FF0202" stroke="black" stroke-width="0.3"/>
<path d="M57.3936 57.8208C57.8935 57.8209 58.373 58.0191 58.7266 58.3726C59.0802 58.7262 59.2793 59.2064 59.2793 59.7065C59.2792 60.2065 59.0801 60.686 58.7266 61.0396C58.373 61.3931 57.8935 61.5922 57.3936 61.5923C56.8934 61.5923 56.4132 61.3932 56.0596 61.0396C55.7061 60.686 55.5079 60.2065 55.5078 59.7065C55.5078 59.2064 55.7059 58.7262 56.0596 58.3726C56.4132 58.0189 56.8934 57.8208 57.3936 57.8208Z" fill="#FF0202" stroke="black" stroke-width="0.3"/>
<path d="M55.3604 6.92773C55.8603 6.92784 56.3398 7.126 56.6934 7.47949C57.047 7.83313 57.2461 8.31335 57.2461 8.81348C57.246 9.31345 57.0469 9.79294 56.6934 10.1465C56.3398 10.5 55.8603 10.6991 55.3604 10.6992C54.8602 10.6992 54.38 10.5001 54.0264 10.1465C53.6729 9.79295 53.4747 9.31342 53.4746 8.81348C53.4746 8.31335 53.6727 7.83313 54.0264 7.47949C54.38 7.12585 54.8602 6.92773 55.3604 6.92773Z" fill="#FF0202" stroke="black" stroke-width="0.3"/>
<path d="M60.1387 20.9331C61.4995 23.6153 62.4206 26.5613 62.916 29.6694C61.7084 28.4769 60.1966 27.635 58.541 27.2397C58.1656 25.8657 57.6721 24.5269 57.0664 23.2378C58.2298 22.6741 59.272 21.8917 60.1387 20.9331Z" fill="#FFC700" stroke="black" stroke-width="0.3"/>
</svg>
