<svg width="70" height="71" viewBox="0 0 70 71" fill="none" xmlns="http://www.w3.org/2000/svg">
<path d="M15.966 45.7733V43.5333L27.422 28.8773H30.878L19.518 43.5333L17.886 43.0213H35.774V45.7733H15.966ZM28.414 51.2773V45.7733L28.51 43.0213V38.1573H31.518V51.2773H28.414ZM46.8443 51.5333C45.0949 51.5333 43.5269 51.0853 42.1403 50.1893C40.7749 49.2933 39.6869 47.992 38.8763 46.2853C38.0869 44.5787 37.6923 42.5093 37.6923 40.0773C37.6923 37.6453 38.0869 35.576 38.8763 33.8693C39.6869 32.1627 40.7749 30.8613 42.1403 29.9653C43.5269 29.0693 45.0949 28.6213 46.8443 28.6213C48.5723 28.6213 50.1296 29.0693 51.5163 29.9653C52.9029 30.8613 53.9909 32.1627 54.7803 33.8693C55.5696 35.576 55.9643 37.6453 55.9643 40.0773C55.9643 42.5093 55.5696 44.5787 54.7803 46.2853C53.9909 47.992 52.9029 49.2933 51.5163 50.1893C50.1296 51.0853 48.5723 51.5333 46.8443 51.5333ZM46.8443 48.6853C48.0176 48.6853 49.0416 48.3653 49.9163 47.7253C50.8123 47.0853 51.5056 46.1253 51.9963 44.8453C52.5083 43.5653 52.7643 41.976 52.7643 40.0773C52.7643 38.1787 52.5083 36.5893 51.9963 35.3093C51.5056 34.0293 50.8123 33.0693 49.9163 32.4293C49.0416 31.7893 48.0176 31.4693 46.8443 31.4693C45.6709 31.4693 44.6363 31.7893 43.7403 32.4293C42.8443 33.0693 42.1403 34.0293 41.6283 35.3093C41.1376 36.5893 40.8923 38.1787 40.8923 40.0773C40.8923 41.976 41.1376 43.5653 41.6283 44.8453C42.1403 46.1253 42.8443 47.0853 43.7403 47.7253C44.6363 48.3653 45.6709 48.6853 46.8443 48.6853Z" fill="white"/>
<path d="M56.2336 17.8796L53.3626 15.5905C52.7235 15.081 51.7942 15.1768 51.2726 15.806L49.5803 17.8476L54.4911 22.038L56.3749 20.0971C56.992 19.4613 56.9265 18.4319 56.2336 17.8796Z" fill="white" stroke="white" stroke-width="3" stroke-linecap="round"/>
<circle cx="35" cy="38.7861" r="25.5" stroke="white" stroke-width="3"/>
<path d="M27.5 4.76807H42.5" stroke="white" stroke-width="3" stroke-linecap="round"/>
</svg>
