<svg width="70" height="71" viewBox="0 0 70 71" fill="none" xmlns="http://www.w3.org/2000/svg">
<path d="M47 60.7773V26.2773C47 24.6205 45.6569 23.2773 44 23.2773H26C24.3431 23.2773 23 24.6205 23 26.2773V60.7773" stroke="white" stroke-width="3" stroke-linecap="round"/>
<path d="M35 23.2773V14.2773" stroke="white" stroke-width="3" stroke-linecap="round"/>
<path d="M14 60.7773H56" stroke="white" stroke-width="3" stroke-linecap="round"/>
<path d="M23 38.2773L47 32.2773" stroke="white" stroke-width="3" stroke-linecap="round"/>
<path d="M23 44.2773L47 38.2773" stroke="white" stroke-width="3" stroke-linecap="round"/>
<path d="M23 50.2773L47 44.2773" stroke="white" stroke-width="3" stroke-linecap="round"/>
<path d="M34.2764 3.45703C34.6921 3.04755 35.3079 3.04754 35.7236 3.45703C36.7881 4.50561 38.1335 5.9882 39.2041 7.66895C40.2872 9.36941 41 11.1341 41 12.7773C41 16.0911 38.3137 18.7773 35 18.7773C31.6863 18.7773 29 16.0911 29 12.7773C29 11.1341 29.7128 9.36941 30.7959 7.66895C31.8665 5.9882 33.2119 4.50561 34.2764 3.45703Z" stroke="white" stroke-width="3" stroke-linecap="round"/>
</svg>
