<svg width="76" height="71" viewBox="0 0 76 71" fill="none" xmlns="http://www.w3.org/2000/svg">
<path d="M38 11.0894L38 20.0894" stroke="white" stroke-width="3" stroke-linecap="round"/>
<path d="M20.6861 27.1705L13.3137 22.0083" stroke="white" stroke-width="3" stroke-linecap="round"/>
<path d="M55.3139 27.1705L62.6863 22.0083" stroke="white" stroke-width="3" stroke-linecap="round"/>
<path d="M2 40.0068L74 40.0068" stroke="white" stroke-width="3" stroke-linecap="round"/>
<path d="M20.8628 39.8708C21.06 39.1548 21.0848 39.0356 21.3702 38.3466C22.2748 36.1627 23.6006 34.1784 25.2721 32.5069C26.9436 30.8355 28.9279 29.5096 31.1117 28.605C33.2956 27.7004 35.6362 27.2349 38 27.2349C40.3638 27.2349 42.7045 27.7004 44.8883 28.605C47.0722 29.5096 49.0565 30.8355 50.7279 32.5069C52.3994 34.1784 53.7253 36.1627 54.6298 38.3466C54.9152 39.0356 54.8388 39.0199 55.036 39.7359" stroke="white" stroke-width="3" stroke-linecap="round"/>
<path d="M37.9999 59.2816L37.9999 41.4634" stroke="white" stroke-width="3" stroke-linecap="round"/>
<path d="M45.636 54.827L37.9996 62.4634L30.3633 54.827" stroke="white" stroke-width="3" stroke-linecap="round" stroke-linejoin="round"/>
</svg>
