<svg width="70" height="71" viewBox="0 0 70 71" fill="none" xmlns="http://www.w3.org/2000/svg">
<path d="M14 56.2773H56" stroke="white" stroke-width="3" stroke-linecap="round"/>
<path d="M27.5 65.2773H42.5" stroke="white" stroke-width="3" stroke-linecap="round"/>
<path d="M55.9989 21.0376C57.836 20.9837 59.6746 21.1469 61.4803 21.519C63.6717 21.9709 65.0461 24.0782 64.6639 26.2417C63.4653 33.0228 59.9075 39.2989 54.205 43.4546C48.3868 47.6943 41.4636 48.8984 35.0038 47.4165C28.5441 48.8984 21.6208 47.6942 15.8026 43.4546C10.1002 39.2989 6.54226 33.0228 5.34363 26.2417C4.96143 24.078 6.33604 21.9708 8.52722 21.519C10.3315 21.1472 12.1682 20.9841 14.0038 21.0376C13.9979 22.0391 14.0467 23.043 14.1532 24.0454C12.4716 23.9767 10.7872 24.1156 9.13269 24.4565C8.57079 24.5724 8.19187 25.1157 8.29871 25.7202C9.37776 31.8242 12.5622 37.3813 17.5702 41.0308C20.7651 43.3587 24.3293 44.6371 27.9354 44.9478C29.2901 45.7293 30.7068 46.4024 32.1698 46.9604C33.1098 47.3189 34.0759 47.4322 35.0018 47.3384C35.9278 47.4322 36.8939 47.3189 37.8339 46.9604C39.2962 46.4027 40.7112 45.7288 42.0653 44.9478C45.6737 44.638 49.2405 43.3602 52.4374 41.0308C57.4455 37.3813 60.6298 31.8243 61.7089 25.7202C61.8157 25.1156 61.4366 24.5725 60.8749 24.4565C59.2189 24.1152 57.5326 23.9763 55.8495 24.0454C55.956 23.043 56.0048 22.0391 55.9989 21.0376Z" fill="white"/>
<path d="M49.5962 10.0312C51.7309 9.4191 53.9682 10.5927 54.6548 12.7188C56.8921 19.6481 56.4076 27.3441 52.6577 34.1787C49.3294 40.2447 43.9886 44.6111 37.8306 46.96C36.8903 47.3186 35.9238 47.4318 34.9976 47.3379C34.0718 47.4316 33.1063 47.3183 32.1665 46.96C26.0083 44.6111 20.6678 40.2449 17.3394 34.1787C13.5893 27.344 13.1049 19.6482 15.3423 12.7188C16.029 10.5927 18.2661 9.41879 20.4009 10.0312C23.5665 10.9397 26.5662 12.3599 29.2534 14.252C28.7589 15.1339 28.3155 16.0485 27.9263 16.9912C25.4204 15.154 22.5867 13.7797 19.5737 12.915C18.9818 12.7452 18.3832 13.0674 18.1978 13.6406C16.2007 19.8258 16.6367 26.6626 19.9692 32.7363C22.2667 36.9233 25.6483 40.2143 29.6362 42.4668C29.3872 41.3293 29.2103 40.1773 29.1069 39.0176C30.2038 41.0301 31.5615 42.8794 33.1362 44.5176C34.1569 45.5792 35.8353 45.5793 36.856 44.5176C38.4327 42.8773 39.7915 41.0253 40.8892 39.0098C40.7859 40.1718 40.6093 41.3261 40.3599 42.4658C44.3476 40.2133 47.7305 36.9232 50.0278 32.7363C53.3602 26.6626 53.7963 19.8257 51.7993 13.6406C51.614 13.0674 51.0152 12.7455 50.4233 12.915C47.4088 13.7801 44.5729 15.1546 42.0659 16.9932C41.6767 16.0503 41.2332 15.1359 40.7388 14.2539C43.4273 12.3608 46.4291 10.9401 49.5962 10.0312Z" fill="white"/>
<path d="M33.14 44.5169C34.1607 45.5788 35.8392 45.5788 36.8599 44.5169C41.281 39.9177 44 33.6616 44 26.7686C44 19.8755 41.281 13.6194 36.8599 9.02018C35.8392 7.95831 34.1607 7.95831 33.14 9.02018C28.719 13.6194 26 19.8755 26 26.7686C26 33.6616 28.719 39.9177 33.14 44.5169Z" stroke="white" stroke-width="3" stroke-linecap="round"/>
</svg>
