<svg width="76" height="71" viewBox="0 0 76 71" fill="none" xmlns="http://www.w3.org/2000/svg">
<path d="M2 53.3525L74 53.3525" stroke="white" stroke-width="3" stroke-linecap="round"/>
<path d="M59 21.7026L54.5 26.2026" stroke="white" stroke-width="3" stroke-linecap="round"/>
<path d="M17 21.7026L21.5 26.2026" stroke="white" stroke-width="3" stroke-linecap="round"/>
<path d="M48.6066 53.3092C49.9995 51.9164 51.1044 50.2628 51.8582 48.4429C52.612 46.623 53 44.6725 53 42.7026C53 40.7328 52.612 38.7823 51.8582 36.9624C51.1044 35.1425 49.9995 33.4889 48.6066 32.096C47.2137 30.7032 45.5601 29.5983 43.7403 28.8444C41.9204 28.0906 39.9698 27.7026 38 27.7026C36.0302 27.7026 34.0796 28.0906 32.2598 28.8444C30.4399 29.5983 28.7863 30.7032 27.3934 32.096C26.0005 33.4889 24.8956 35.1425 24.1418 36.9624C23.388 38.7823 23 40.7328 23 42.7026C23 44.6725 23.388 46.623 24.1418 48.4429C24.8956 50.2628 26.0005 51.9164 27.3934 53.3092" stroke="white" stroke-width="3" stroke-linecap="round"/>
<path d="M8 42.7026L17 42.7026" stroke="white" stroke-width="3" stroke-linecap="round"/>
<path d="M68 42.7026L59 42.7026" stroke="white" stroke-width="3" stroke-linecap="round"/>
<path d="M38 5.20264L38 21.7026" stroke="white" stroke-width="3" stroke-linecap="round"/>
<path d="M32 8.20264L38 2.20264L44 8.20264" stroke="white" stroke-width="3" stroke-linecap="round" stroke-linejoin="round"/>
</svg>
