<svg width="100" height="100" viewBox="0 0 100 100" fill="none" xmlns="http://www.w3.org/2000/svg">
<path d="M50 62.2773V66.5441C50 67.6891 49.7815 68.8235 49.3563 69.8866L48.337 72.4348C47.4787 74.5805 47.4787 76.9742 48.337 79.1199L50 83.2773" stroke="#FF0202" stroke-width="3" stroke-linecap="round"/>
<path d="M68.759 24.2657C74.2591 30.1298 73.6071 39.8297 67.3788 44.7976L51.8707 57.1675C50.7763 58.0405 49.2237 58.0405 48.1293 57.1675L32.6212 44.7976C26.3929 39.8297 25.7409 30.1298 31.241 24.2657C36.2286 18.9479 44.3152 18.9479 49.3028 24.2657C49.6804 24.6683 50.3196 24.6683 50.6972 24.2657C55.6848 18.9479 63.7714 18.9479 68.759 24.2657Z" stroke="#FF0202" stroke-width="3" stroke-linecap="round"/>
<path d="M55.0889 54.6011C55.6653 55.5225 56 56.6108 56 57.7778C56 61.0915 53.3137 63.7778 50 63.7778C46.6863 63.7778 44 61.0915 44 57.7778C44 56.611 44.3339 55.5224 44.9102 54.6011L47.2891 56.4985C47.1055 56.8869 47 57.3197 47 57.7778C47 59.4347 48.3431 60.7778 50 60.7778C51.6569 60.7778 53 59.4347 53 57.7778C53 57.3196 52.8937 56.887 52.71 56.4985L55.0889 54.6011Z" fill="#FF0202"/>
</svg>
