<svg width="70" height="71" viewBox="0 0 70 71" fill="none" xmlns="http://www.w3.org/2000/svg">
<path d="M17.434 51.7861V49.6101L26.554 40.8101C27.3647 40.0421 27.962 39.3701 28.346 38.7941C28.7513 38.1968 29.018 37.6528 29.146 37.1621C29.2953 36.6501 29.37 36.1595 29.37 35.6901C29.37 34.5381 28.9647 33.6315 28.154 32.9701C27.3433 32.3088 26.1593 31.9781 24.602 31.9781C23.4073 31.9781 22.33 32.1808 21.37 32.5861C20.41 32.9701 19.578 33.5781 18.874 34.4101L16.698 32.5221C17.5513 31.4341 18.6927 30.6021 20.122 30.0261C21.5727 29.4288 23.162 29.1301 24.89 29.1301C26.4473 29.1301 27.802 29.3861 28.954 29.8981C30.106 30.3888 30.9913 31.1035 31.61 32.0421C32.25 32.9808 32.57 34.0901 32.57 35.3701C32.57 36.0955 32.474 36.8101 32.282 37.5141C32.09 38.2181 31.7273 38.9648 31.194 39.7541C30.6607 40.5435 29.8927 41.4288 28.89 42.4101L20.762 50.2501L19.994 49.0021H33.53V51.7861H17.434ZM45.2818 52.0421C43.5324 52.0421 41.9644 51.5941 40.5778 50.6981C39.2124 49.8021 38.1244 48.5008 37.3138 46.7941C36.5244 45.0875 36.1298 43.0181 36.1298 40.5861C36.1298 38.1541 36.5244 36.0848 37.3138 34.3781C38.1244 32.6715 39.2124 31.3701 40.5778 30.4741C41.9644 29.5781 43.5324 29.1301 45.2818 29.1301C47.0098 29.1301 48.5671 29.5781 49.9538 30.4741C51.3404 31.3701 52.4284 32.6715 53.2178 34.3781C54.0071 36.0848 54.4018 38.1541 54.4018 40.5861C54.4018 43.0181 54.0071 45.0875 53.2178 46.7941C52.4284 48.5008 51.3404 49.8021 49.9538 50.6981C48.5671 51.5941 47.0098 52.0421 45.2818 52.0421ZM45.2818 49.1941C46.4551 49.1941 47.4791 48.8741 48.3538 48.2341C49.2498 47.5941 49.9431 46.6341 50.4338 45.3541C50.9458 44.0741 51.2018 42.4848 51.2018 40.5861C51.2018 38.6875 50.9458 37.0981 50.4338 35.8181C49.9431 34.5381 49.2498 33.5781 48.3538 32.9381C47.4791 32.2981 46.4551 31.9781 45.2818 31.9781C44.1084 31.9781 43.0738 32.2981 42.1778 32.9381C41.2818 33.5781 40.5778 34.5381 40.0658 35.8181C39.5751 37.0981 39.3298 38.6875 39.3298 40.5861C39.3298 42.4848 39.5751 44.0741 40.0658 45.3541C40.5778 46.6341 41.2818 47.5941 42.1778 48.2341C43.0738 48.8741 44.1084 49.1941 45.2818 49.1941Z" fill="white"/>
<path d="M56.2336 17.8791L53.3626 15.59C52.7235 15.0805 51.7942 15.1763 51.2726 15.8055L49.5803 17.8471L54.4911 22.0375L56.3749 20.0967C56.992 19.4608 56.9265 18.4315 56.2336 17.8791Z" fill="white" stroke="white" stroke-width="3" stroke-linecap="round"/>
<circle cx="35" cy="38.7861" r="25.5" stroke="white" stroke-width="3"/>
<path d="M27.5 4.76807H42.5" stroke="white" stroke-width="3" stroke-linecap="round"/>
</svg>
